<svg width="40" height="40" viewBox="0 0 40 40" fill="none" xmlns="http://www.w3.org/2000/svg">
<g clip-path="url(#clip0_49_200)">
<path opacity="0.4" d="M31.4209 0H23.0563C20.8043 0 18.5523 0.857909 16.9437 2.57373L2.57374 16.9437C-0.750655 20.2681 -0.750655 25.8445 2.57374 29.1689L10.9384 37.5335C14.2627 40.8579 19.8392 40.8579 23.1636 37.5335L37.5335 23.1635C39.1421 21.555 40.1073 19.3029 40.1073 17.0509V8.68633C40 3.86059 36.1394 0 31.4209 0Z" fill="#00BD74"/>
<path d="M32.4933 11.0455C34.4478 11.0455 36.0322 9.46111 36.0322 7.50665C36.0322 5.55218 34.4478 3.96777 32.4933 3.96777C30.5389 3.96777 28.9545 5.55218 28.9545 7.50665C28.9545 9.46111 30.5389 11.0455 32.4933 11.0455Z" fill="#00BD74"/>
<path d="M13.0832 25.5228C11.6891 23.6997 11.6891 21.5549 12.8687 19.8391C13.0832 19.5174 13.6194 19.4102 13.9411 19.7319L14.799 20.5898C15.0135 20.8043 15.0135 21.126 14.9062 21.4477C14.2628 22.5201 14.37 23.8069 15.4424 24.7721C16.5148 25.8445 17.5872 26.1662 18.5523 25.3083C20.6971 23.1635 13.9411 19.4102 17.6944 15.6568C19.0885 14.2627 21.2333 14.2627 23.0563 15.6568L23.9143 14.7989C24.236 14.4772 24.6649 14.4772 24.8794 14.7989L25.5228 15.4423C25.8446 15.7641 25.8446 16.193 25.5228 16.4075L24.6649 17.2654C25.7373 18.874 25.8446 20.697 24.8794 22.1984C24.6649 22.5201 24.1287 22.6273 23.807 22.3056L22.8419 21.4477C22.6274 21.2332 22.6274 20.9115 22.7346 20.5898C23.1636 19.7319 22.9491 18.6595 22.0912 17.8016C21.1261 16.8364 20.0537 16.7292 19.4102 17.3726C17.2655 19.5174 24.236 23.2708 20.3754 27.0241C18.7668 28.6327 16.622 28.5254 14.6917 27.0241L13.7266 27.9893C13.4049 28.311 12.9759 28.311 12.7614 27.9893L12.118 27.3458C11.9035 27.0241 11.9035 26.5952 12.118 26.3807L13.0832 25.5228Z" fill="#00BD74"/>
</g>
<defs>
<clipPath id="clip0_49_200">
<rect width="40" height="40" fill="white"/>
</clipPath>
</defs>
</svg>
