<svg width="45" height="40" viewBox="0 0 45 40" fill="none" xmlns="http://www.w3.org/2000/svg">
<g clip-path="url(#clip0_49_193)">
<path opacity="0.4" d="M32.2619 40.0049H12.1427C8.80936 40.1239 5.59508 39.0527 3.21412 36.9098C0.952219 34.5289 -0.119152 31.4336 -0.00010421 28.2193V11.9098C-0.119152 8.69552 0.952219 5.48117 3.21412 3.21927C5.71412 1.07641 8.92841 -0.114182 12.1427 0.123913H32.2619C35.5952 0.00486548 38.8095 1.07641 41.1905 3.21927C43.4524 5.60022 44.5238 8.69552 44.4047 11.9098V12.0287H34.9998C30.7141 12.0287 27.1427 15.4811 27.0236 19.7668C27.0236 21.7906 27.8572 23.8145 29.2857 25.2431C30.8333 26.6716 32.8571 27.5049 34.8809 27.5049H44.2855V28.2193C44.4046 31.4336 43.3332 34.6479 41.0713 36.9098C38.8094 39.0527 35.5952 40.1239 32.2619 40.0049Z" fill="#00BD74"/>
<path d="M42.8571 15.3619H35.4763C33.0953 15.3619 31.0714 17.3858 31.1904 19.8858C31.1904 20.1239 31.1905 20.481 31.3096 20.7191C31.7858 22.8619 33.5714 24.2905 35.7143 24.2905H42.9763C43.8096 24.2905 44.5237 23.5763 44.5237 22.624V17.0285C44.4047 16.0761 43.6905 15.3619 42.8571 15.3619ZM35.5951 22.0287C34.4047 22.0287 33.3333 21.0762 33.3333 19.7666C33.3333 18.5762 34.2856 17.5049 35.5951 17.5049C36.9047 17.5049 37.8572 18.4571 37.8572 19.7666C37.7382 20.9571 36.7856 22.0287 35.5951 22.0287Z" fill="#00BD74"/>
<path d="M8.80945 9.76188C8.80945 8.8095 9.52373 8.09521 10.4761 8.09521H23.0952C24.0475 8.09521 24.7618 8.8095 24.7618 9.76188C24.7618 10.7143 24.0475 11.4285 23.0952 11.4285H10.4761C9.64278 11.4285 8.80945 10.7143 8.80945 9.76188Z" fill="#00BD74"/>
</g>
<defs>
<clipPath id="clip0_49_193">
<rect width="44.4048" height="40" fill="white"/>
</clipPath>
</defs>
</svg>
