<svg width="38" height="40" viewBox="0 0 38 40" fill="none" xmlns="http://www.w3.org/2000/svg">
<g clip-path="url(#clip0_49_206)">
<path d="M19.0282 25.6818C15.8568 25.7841 13.2991 23.2266 13.1968 20.0552C13.1968 16.8839 15.8567 14.3263 18.9258 14.4286C21.9948 14.4286 24.5524 16.9862 24.5524 20.0552C24.5524 23.1243 22.0972 25.6818 19.0282 25.6818Z" fill="#00BD74"/>
<path opacity="0.4" d="M37.4427 24.7613C37.0335 24.1474 36.4195 23.5336 35.8057 23.2267C35.2942 22.9198 34.7828 22.5106 34.5782 21.8968C33.5551 20.1576 34.169 17.9071 35.9081 16.8841C37.8519 15.7587 38.5678 13.3034 37.5448 11.3596C37.5448 11.2573 37.4427 11.2574 37.4427 11.1551L36.1127 8.80208C34.9874 6.85834 32.3274 6.14223 30.3837 7.26755C28.5423 8.18827 26.2916 7.57441 25.2686 5.93758C24.9617 5.42607 24.7571 4.81231 24.7571 4.1985C24.7571 3.48238 24.6548 2.66412 24.2456 2.05031C23.4272 0.822687 22.0974 0.00427246 20.5629 0.00427246H17.6984C16.2661 0.00427246 14.8339 0.822687 14.1178 2.05031C13.7086 2.66412 13.5039 3.38008 13.5039 4.1985C13.5039 4.81231 13.4016 5.42607 12.9924 5.93758C11.8671 7.67671 9.71872 8.29057 7.87729 7.26755C5.83125 6.14223 3.27386 6.75604 2.14854 8.80208L0.818563 11.1551C-0.306757 13.0988 0.306955 15.554 2.25069 16.7817C2.25069 16.7817 2.35309 16.7818 2.35309 16.8841C4.09222 17.9071 4.70608 20.1576 3.68306 21.8968C3.37616 22.4083 2.9669 22.9198 2.35309 23.2267C1.63698 23.6359 1.12537 24.1474 0.716162 24.7613C4.89801e-05 25.9889 4.89801e-05 27.6257 0.716162 28.8533L2.14854 31.2063C2.86465 32.5362 4.29672 33.2524 5.83125 33.2524C6.54736 33.2524 7.36588 33.0476 7.97969 32.6384C8.4912 32.3315 9.10506 32.127 9.82117 32.2293C11.8672 32.2293 13.504 33.866 13.6063 35.9121C13.6063 38.1627 15.4476 40.0041 17.8005 40.0041C17.8005 40.0041 17.8006 40.0041 17.9029 40.0041H20.665C22.9157 40.1064 24.8595 38.2651 24.8595 36.0145C24.8595 36.0145 24.8595 36.0144 24.8595 35.9121C24.9618 33.866 26.5986 32.3316 28.6446 32.2293C29.2584 32.2293 29.8723 32.3315 30.4861 32.6384C32.4298 33.8661 35.0895 33.1501 36.2148 31.2063L37.6472 28.8533C38.1587 27.5234 38.1588 25.9889 37.4427 24.7613Z" fill="#00BD74"/>
</g>
<defs>
<clipPath id="clip0_49_206">
<rect width="37.954" height="40" fill="white"/>
</clipPath>
</defs>
</svg>
