<svg
  xmlns="http://www.w3.org/2000/svg" 
  class="text-[#231F20] dark:text-gray-400"
  stroke="currentColor" 
  stroke-linecap="round" 
  stroke-linejoin="round" 
  stroke-miterlimit="2" 
  stroke-width="5" 
  fill="none" 
  
  viewBox="0 0 450 300"
>
  <path d="M159.2 265.6H3M298 252h149M190.8 3h40m-73.6 0H179m-9.5 15.5h36.8M78.8 76.2 77 78m-7.8 7.8-1.8 1.8m11.4 0L77 85.8M69.2 78l-1.8-1.8M101 114l-.6-.6m7.6 7.6-.6-.6m0-6.4.5-.6m-7.5 7.6.5-.6M394.2 168l-1.7 1.8m-7.9 7.8-1.8 1.8m11.4 0-1.7-1.8m-7.9-7.8-1.8-1.8M42.6 234.5h49.7m-32.9-14.8h22.4m87.2 6.1c-3.2.2-6.4.4-9.8.4-21.8 0-39.6-6.6-39.6-14.8 0-8.2 17.8-14.9 39.6-14.9 3.4 0 6.6.2 9.7.5"/>
  <path d="M119.6 211.4v19.8c0 8.2 17.8 14.8 39.6 14.8 3.4 0 6.6-.2 9.7-.5"/>
  <path d="M119.6 231.2v19.7c0 8.2 17.8 14.9 39.6 14.9"/>
  <path d="M275.2 171.7c0 9-19.6 16.4-43.8 16.4-24.1 0-43.7-7.3-43.7-16.4 0-9 19.6-16.4 43.7-16.4 24.2 0 43.8 7.3 43.8 16.4Z" clip-rule="evenodd"/>
  <path d="M187.7 171.7v21.9c0 9 19.6 16.4 43.7 16.4 24.2 0 43.8-7.4 43.8-16.4v-22"/>
  <path d="M187.7 193.6v21.8c0 9.1 19.6 16.5 43.7 16.5 24.2 0 43.8-7.4 43.8-16.5v-21.8"/>
  <path d="M187.7 215.4v22c0 9 19.6 16.3 43.7 16.3 24.2 0 43.8-7.3 43.8-16.4v-21.9"/>
  <path d="M187.7 237.3v21.9c0 9 19.6 16.4 43.7 16.4 24.2 0 43.8-7.3 43.8-16.4v-21.9"/>
  <path d="M187.7 259.2v21.9c0 9 19.6 16.4 43.7 16.4 24.2 0 43.8-7.4 43.8-16.4v-21.9"/>
  <path d="M234.4 105.1c0 8.3-18 15.1-40.3 15.1-22.2 0-40.3-6.8-40.3-15.1s18-15.1 40.3-15.1c22.3 0 40.3 6.8 40.3 15.1Z" clip-rule="evenodd"/>
  <path d="M153.8 105.1v20.2c0 8.3 18 15 40.3 15 22.3 0 40.3-6.7 40.3-15V105m0 33v-12.7"/>
  <path d="M153.8 125.3v20.1c0 5.5 7.8 10.3 19.5 13"/>
  <path d="M153.8 145.4v20.2c0 4.7 6 9 15.1 11.8m-15.1-11.8v12.6"/>
  <path d="M342.4 61c0 9-19.6 16.4-43.8 16.4C274.5 77.4 255 70 255 61c0-9 19.6-16.4 43.7-16.4 24.2 0 43.8 7.3 43.8 16.4Z" clip-rule="evenodd"/>
  <path d="M254.9 61v21.9c0 9 19.6 16.4 43.7 16.4 24.2 0 43.8-7.4 43.8-16.4v-22"/>
  <path d="M254.9 82.9v21.8c0 9.1 19.6 16.4 43.7 16.4 24.2 0 43.8-7.3 43.8-16.4V83"/>
  <path d="M254.9 104.7v22c0 9 19.6 16.3 43.7 16.3 24.2 0 43.8-7.3 43.8-16.4v-21.9"/>
  <path d="m294 164.8 4.6.1c24.2 0 43.8-7.3 43.8-16.4v-21.9m-87.5 0v12"/>
  <path d="M294 186.7h4.6c24.2 0 43.8-7.3 43.8-16.3v-22"/>
  <path d="M294 208.6h4.6c24.2 0 43.8-7.3 43.8-16.4v-21.8"/>
  <path d="m294 230.4 4.6.1c24.2 0 43.8-7.3 43.8-16.4v-21.9"/>
  <path d="M298.6 252.4c24.2 0 43.8-7.3 43.8-16.4v-21.9"/>
</svg>
