<svg width="34" height="40" viewBox="0 0 34 40" fill="none" xmlns="http://www.w3.org/2000/svg">
<g clip-path="url(#clip0_49_182)">
<path opacity="0.4" d="M30.6069 14.0411C29.657 14.0411 28.4961 14.0411 27.0186 14.0411C23.3246 14.0411 20.3694 11.0862 20.3694 7.39226V0.954159C20.3694 0.426455 19.9471 0.00439453 19.4194 0.00439453H8.86532C3.9049 0.00439453 -0.105652 4.01495 -0.105652 8.97537V30.5056C-0.105652 35.6771 4.01049 39.8986 9.182 39.8986H24.9077C29.8682 39.8986 33.8786 35.8881 33.7731 30.9277V14.8855C33.7731 14.3578 33.351 13.9357 32.8233 13.9357C32.1901 14.0413 31.2401 14.0411 30.6069 14.0411Z" fill="#00BD74"/>
<path d="M25.1188 1.16513C24.8022 0.74297 24.1689 0.74297 23.7467 1.16513C23.5356 1.37622 23.43 1.58725 23.43 1.90387V7.18091C23.43 9.39727 25.2243 11.1915 27.4406 11.1915C28.8127 11.1915 30.8179 11.1915 32.401 11.1915C32.9287 11.1915 33.351 10.7695 33.351 10.2418C33.351 10.0307 33.2454 9.71395 33.0343 9.60841C31.1346 7.28651 27.3351 3.38149 25.1188 1.16513Z" fill="#00BD74"/>
<path d="M23.219 21.7456C22.5858 22.3788 21.7415 22.3788 21.1082 21.7456L17.942 18.5793V28.1837C17.942 29.028 17.3088 29.6612 16.4645 29.7668C15.6202 29.7668 14.9869 29.1334 14.8814 28.289V28.1837V18.5793L11.7152 21.7456C11.0819 22.3788 10.2376 22.3788 9.60436 21.7456C8.97111 21.1123 8.97111 20.268 9.60436 19.6347L15.3035 13.9356C15.7256 13.5135 16.3589 13.4079 16.8866 13.619C17.0977 13.7245 17.2032 13.8301 17.4143 13.9356L23.1134 19.6347C23.7466 20.268 23.7467 21.2178 23.219 21.7456Z" fill="#00BD74"/>
</g>
<defs>
<clipPath id="clip0_49_182">
<rect width="33.9842" height="40" fill="white"/>
</clipPath>
</defs>
</svg>
