<svg width="40" height="40" viewBox="0 0 40 40" fill="none" xmlns="http://www.w3.org/2000/svg">
<path opacity="0.4" d="M26.8868 5.19263H13.0189C8.0189 5.19263 5.09424 8.02272 5.09424 13.1171V26.9849C5.09424 31.9849 7.92457 34.9096 13.0189 34.9096H26.8868C31.9811 34.9096 34.8112 32.0793 34.8112 26.9849V13.1171C34.8112 8.02272 31.9811 5.19263 26.8868 5.19263Z" fill="#00BD74"/>
<path d="M16.3208 3.49057C15.9434 3.49057 15.6604 3.20755 15.6604 2.83019V0.660377C15.6604 0.283019 15.9434 0 16.3208 0C16.6981 0 16.9812 0.283019 16.9812 0.660377V2.83019C16.9812 3.20755 16.6981 3.49057 16.3208 3.49057Z" fill="#00BD74"/>
<path d="M20 3.49057C19.6226 3.49057 19.3396 3.20755 19.3396 2.83019V0.660377C19.3396 0.283019 19.6226 0 20 0C20.3773 0 20.6604 0.283019 20.6604 0.660377V2.83019C20.6604 3.20755 20.3773 3.49057 20 3.49057Z" fill="#00BD74"/>
<path d="M23.6793 3.49057C23.3019 3.49057 23.0189 3.20755 23.0189 2.83019V0.660377C23.0189 0.283019 23.3019 0 23.6793 0C24.0567 0 24.3397 0.283019 24.3397 0.660377V2.83019C24.3397 3.20755 24.0567 3.49057 23.6793 3.49057Z" fill="#00BD74"/>
<path d="M16.3208 40C15.9434 40 15.6604 39.717 15.6604 39.3396V37.2641C15.6604 36.8868 15.9434 36.6038 16.3208 36.6038C16.6981 36.6038 16.9812 36.8868 16.9812 37.2641V39.3396C16.9812 39.6226 16.6981 40 16.3208 40Z" fill="#00BD74"/>
<path d="M20 40C19.6226 40 19.3396 39.717 19.3396 39.3396V37.2641C19.3396 36.8868 19.6226 36.6038 20 36.6038C20.3773 36.6038 20.6604 36.8868 20.6604 37.2641V39.3396C20.6604 39.6226 20.3773 40 20 40Z" fill="#00BD74"/>
<path d="M23.6793 40C23.3019 40 23.0189 39.717 23.0189 39.3396V37.2641C23.0189 36.8868 23.3019 36.6038 23.6793 36.6038C24.0567 36.6038 24.3397 36.8868 24.3397 37.2641V39.3396C24.3397 39.6226 24.0567 40 23.6793 40Z" fill="#00BD74"/>
<path d="M36.5094 16.3208C36.5094 15.9434 36.7924 15.6604 37.1698 15.6604H39.2452C39.6226 15.6604 39.9056 15.9434 39.9056 16.3208C39.9056 16.6981 39.6226 16.9812 39.2452 16.9812H37.1698C36.7924 16.9812 36.5094 16.6981 36.5094 16.3208Z" fill="#00BD74"/>
<path d="M36.5094 20C36.5094 19.6226 36.7924 19.3396 37.1698 19.3396H39.2452C39.6226 19.3396 39.9056 19.6226 39.9056 20C39.9056 20.3773 39.6226 20.6604 39.2452 20.6604H37.1698C36.7924 20.6604 36.5094 20.3773 36.5094 20Z" fill="#00BD74"/>
<path d="M36.5094 23.6793C36.5094 23.3019 36.7924 23.0189 37.1698 23.0189H39.2452C39.6226 23.0189 39.9056 23.3019 39.9056 23.6793C39.9056 24.0567 39.6226 24.3397 39.2452 24.3397H37.1698C36.7924 24.3397 36.5094 24.0567 36.5094 23.6793Z" fill="#00BD74"/>
<path d="M0 16.3208C0 15.9434 0.283019 15.6604 0.660377 15.6604H2.83019C3.20755 15.6604 3.49057 15.9434 3.49057 16.3208C3.49057 16.6981 3.20755 16.9812 2.83019 16.9812H0.660377C0.283019 16.9812 0 16.6981 0 16.3208Z" fill="#00BD74"/>
<path d="M0 20C0 19.6226 0.283019 19.3396 0.660377 19.3396H2.83019C3.20755 19.3396 3.49057 19.6226 3.49057 20C3.49057 20.3773 3.20755 20.6604 2.83019 20.6604H0.660377C0.283019 20.6604 0 20.3773 0 20Z" fill="#00BD74"/>
<path d="M0 23.6793C0 23.3019 0.283019 23.0189 0.660377 23.0189H2.83019C3.20755 23.0189 3.49057 23.3019 3.49057 23.6793C3.49057 24.0567 3.20755 24.3397 2.83019 24.3397H0.660377C0.283019 24.3397 0 24.0567 0 23.6793Z" fill="#00BD74"/>
<path d="M24.5283 10.2869H15.4716C12.1698 10.2869 10.283 12.1737 10.283 15.4755V24.5322C10.283 27.8341 12.1698 29.7209 15.4716 29.7209H24.5283C27.8302 29.7209 29.717 27.8341 29.717 24.5322V15.4755C29.6227 12.1737 27.7359 10.2869 24.5283 10.2869Z" fill="#00BD74"/>
</svg>
