<svg width="280" height="51" viewBox="0 0 280 51" fill="none" xmlns="http://www.w3.org/2000/svg">
<path d="M86.5085 40.8174C84.4198 40.8174 82.5051 40.4693 80.6775 39.773C78.9369 39.0768 77.3703 38.2065 76.0649 36.9881C74.7594 35.7696 73.715 34.3771 73.0188 32.7236C72.3225 31.07 71.9744 29.3294 71.9744 27.3277C71.9744 25.3259 72.3225 23.5853 73.0188 21.9317C73.715 20.2782 74.7594 18.8857 76.0649 17.6672C77.3703 16.4488 78.9369 15.4915 80.6775 14.8823C82.4181 14.186 84.4198 13.8379 86.5085 13.8379C88.5973 13.8379 90.599 14.186 92.3396 14.8823C94.0802 15.5785 95.6468 16.5358 96.9522 17.7543C98.2577 18.9727 99.3021 20.3652 99.9983 22.0188C100.695 23.6724 101.043 25.413 101.043 27.3277C101.043 29.2423 100.695 30.9829 99.9983 32.6365C99.3021 34.2901 98.2577 35.6826 96.9522 36.901C95.6468 38.1195 94.0802 39.0768 92.3396 39.773C90.599 40.4693 88.5973 40.8174 86.5085 40.8174ZM86.5085 36.2048C87.814 36.2048 89.0324 36.0307 90.1638 35.5956C91.2952 35.1604 92.2526 34.5512 93.0358 33.7679C93.8191 32.9846 94.5154 32.0273 94.9505 30.9829C95.3857 29.9386 95.6468 28.7201 95.6468 27.5017C95.6468 26.1963 95.3857 25.0649 94.9505 24.0205C94.5154 22.9761 93.8191 22.0188 93.0358 21.2355C92.2526 20.4522 91.2952 19.843 90.1638 19.4079C89.0324 18.9727 87.814 18.7986 86.5085 18.7986C85.2031 18.7986 83.9846 18.9727 82.8532 19.4079C81.7218 19.843 80.7645 20.4522 79.9812 21.2355C79.198 22.0188 78.5887 22.9761 78.0666 24.0205C77.6314 24.8908 77.4573 26.1092 77.4573 27.4147C77.4573 28.7201 77.7184 29.8515 78.1536 30.8959C78.5887 31.9403 79.198 32.8976 80.0683 33.6809C80.8515 34.4642 81.8089 35.0734 82.9403 35.5085C83.9846 36.0307 85.2031 36.2048 86.5085 36.2048Z" fill="white"/>
<path d="M106.09 48.6501V20.8003H111.138L111.225 25.2388L110.355 24.8907C110.529 24.1074 110.964 23.4112 111.747 22.7149C112.531 22.0187 113.488 21.4965 114.619 21.0614C115.751 20.6262 116.882 20.4521 118.188 20.4521C120.102 20.4521 121.843 20.8873 123.41 21.7576C124.889 22.6279 126.108 23.8463 126.978 25.3259C127.848 26.8054 128.283 28.633 128.283 30.5477C128.283 32.5494 127.848 34.29 126.978 35.7696C126.108 37.3361 124.889 38.4675 123.41 39.4248C121.93 40.2952 120.189 40.7303 118.275 40.7303C116.969 40.7303 115.751 40.4692 114.619 40.0341C113.401 39.5989 112.444 38.9897 111.573 38.2934C110.79 37.5972 110.268 36.8139 110.007 36.0306L111.225 35.5085V48.5631H106.09V48.6501ZM117.23 36.7269C118.362 36.7269 119.406 36.4658 120.363 35.9436C121.321 35.4214 122.017 34.7252 122.539 33.7678C123.061 32.8105 123.323 31.7661 123.323 30.6347C123.323 29.5033 123.061 28.3719 122.539 27.5016C122.017 26.6313 121.321 25.8481 120.451 25.3259C119.493 24.8037 118.449 24.5426 117.317 24.5426C116.099 24.5426 115.055 24.8037 114.097 25.3259C113.227 25.8481 112.444 26.5443 111.922 27.5016C111.399 28.459 111.138 29.5033 111.138 30.6347C111.138 31.7661 111.399 32.8975 111.922 33.7678C112.444 34.7252 113.14 35.4214 114.097 35.9436C114.881 36.4658 116.012 36.7269 117.23 36.7269Z" fill="white"/>
<path d="M143.166 40.8175C140.816 40.8175 138.814 40.3823 137.073 39.512C135.333 38.6417 133.94 37.4233 132.983 35.9437C132.026 34.4642 131.503 32.7236 131.503 30.8089C131.503 29.2424 131.765 27.8499 132.374 26.6314C132.896 25.326 133.679 24.2816 134.724 23.3243C135.681 22.3669 136.899 21.6707 138.292 21.1485C139.684 20.6263 141.164 20.3652 142.817 20.3652C144.297 20.3652 145.602 20.6263 146.908 21.1485C148.126 21.6707 149.258 22.2799 150.128 23.1502C151.085 24.0205 151.782 25.0649 152.217 26.1963C152.739 27.4147 152.913 28.6332 152.913 30.0256V31.5922H134.898L133.94 28.4591H148.387L147.691 29.0683V28.285C147.604 27.5018 147.343 26.8055 146.821 26.2833C146.386 25.6741 145.776 25.239 144.993 24.8908C144.297 24.5427 143.427 24.3686 142.556 24.3686C141.164 24.3686 140.032 24.6297 139.075 25.0649C138.118 25.5 137.422 26.1963 136.986 27.0666C136.551 27.9369 136.29 29.0683 136.29 30.3738C136.29 31.6792 136.551 32.7236 137.16 33.6809C137.77 34.6383 138.64 35.3345 139.684 35.8567C140.816 36.3789 142.034 36.64 143.514 36.64C144.558 36.64 145.515 36.4659 146.386 36.2048C147.256 35.9437 148.213 35.3345 149.171 34.6383L151.695 37.7714C150.911 38.3806 150.128 38.9028 149.084 39.3379C148.126 39.7731 147.082 40.1212 146.038 40.3823C145.254 40.7304 144.21 40.8175 143.166 40.8175Z" fill="white"/>
<path d="M157.352 40.4693V20.8004H162.399L162.486 24.8038L161.529 25.239C161.79 24.3686 162.312 23.4983 163.183 22.8021C163.966 22.1058 164.923 21.4966 166.055 21.0615C167.186 20.6263 168.317 20.3652 169.449 20.3652C171.102 20.3652 172.495 20.6263 173.626 21.2355C174.758 21.8448 175.628 22.7151 176.15 23.9335C176.759 25.1519 177.02 26.6314 177.02 28.3721V40.3823H171.886V28.8072C171.886 27.8499 171.712 26.9796 171.451 26.3704C171.102 25.6741 170.667 25.239 170.058 24.8908C169.449 24.5427 168.666 24.4557 167.708 24.4557C166.925 24.4557 166.229 24.5427 165.619 24.8038C165.01 24.9779 164.488 25.326 163.966 25.6741C163.531 26.0222 163.183 26.4574 162.922 26.9796C162.66 27.5018 162.486 28.0239 162.486 28.6332V40.4693H159.962C159.44 40.4693 159.005 40.4693 158.57 40.4693C158.048 40.4693 157.7 40.4693 157.352 40.4693Z" fill="white"/>
<path d="M196.08 40.8174C193.991 40.8174 191.99 40.4693 190.249 39.8601C188.509 39.2509 186.942 38.2935 185.724 37.0751C184.418 35.8567 183.461 34.4642 182.765 32.8106C182.068 31.157 181.72 29.3294 181.72 27.4147C181.72 25.5 182.068 23.7594 182.852 22.1929C183.635 20.5393 184.679 19.1468 185.985 17.9283C187.29 16.7099 188.857 15.7526 190.684 15.0563C192.425 14.3601 194.427 14.012 196.515 14.012C197.908 14.012 199.3 14.186 200.606 14.5341C201.911 14.8823 203.13 15.4045 204.261 16.1007C205.393 16.7969 206.35 17.4932 207.046 18.3635L203.565 21.7577C202.869 21.0615 202.085 20.5393 201.302 20.1041C200.519 19.669 199.736 19.3208 198.952 19.0597C198.169 18.7987 197.299 18.7116 196.428 18.7116C195.123 18.7116 193.904 18.8857 192.86 19.3208C191.729 19.756 190.771 20.3652 189.901 21.1485C189.118 21.9318 188.422 22.8021 187.986 23.8464C187.551 24.8908 187.29 26.1092 187.29 27.3277C187.29 28.6331 187.551 29.8516 187.986 30.8959C188.422 31.9403 189.118 32.8976 189.988 33.6809C190.858 34.4642 191.816 35.0734 193.034 35.4215C194.253 35.8567 195.558 36.0307 196.951 36.0307C197.908 36.0307 198.778 35.9437 199.648 35.6826C200.519 35.4215 201.302 35.1604 202.085 34.7253C202.782 34.2901 203.478 33.855 204.087 33.3328L206.785 37.1621C206.089 37.8584 205.218 38.4676 204.087 38.9898C202.956 39.512 201.737 39.9471 200.345 40.2952C198.778 40.6434 197.473 40.8174 196.08 40.8174Z" fill="white"/>
<path d="M221.406 40.8173C219.23 40.8173 217.229 40.3822 215.488 39.5119C213.747 38.6416 212.442 37.4231 211.398 35.8566C210.353 34.29 209.918 32.5494 209.918 30.6347C209.918 28.633 210.44 26.8924 211.398 25.4129C212.442 23.8463 213.747 22.6279 215.488 21.7576C217.229 20.8873 219.143 20.4521 221.406 20.4521C223.582 20.4521 225.497 20.8873 227.237 21.7576C228.978 22.6279 230.283 23.8463 231.328 25.4129C232.285 26.9795 232.807 28.7201 232.807 30.6347C232.807 32.6364 232.285 34.3771 231.328 35.8566C230.37 37.4231 228.978 38.6416 227.237 39.5119C225.497 40.3822 223.582 40.8173 221.406 40.8173ZM221.406 36.7269C222.625 36.7269 223.669 36.4658 224.626 35.9436C225.584 35.4214 226.28 34.6382 226.802 33.7678C227.324 32.8105 227.585 31.7661 227.585 30.6347C227.585 29.4163 227.324 28.3719 226.802 27.5016C226.28 26.5443 225.497 25.8481 224.626 25.3259C223.669 24.8037 222.625 24.5426 221.406 24.5426C220.188 24.5426 219.143 24.8037 218.186 25.3259C217.229 25.8481 216.445 26.6313 215.923 27.5016C215.401 28.459 215.14 29.5033 215.14 30.6347C215.14 31.7661 215.401 32.8105 215.923 33.7678C216.445 34.7252 217.229 35.4214 218.186 35.9436C219.056 36.4658 220.188 36.7269 221.406 36.7269Z" fill="white"/>
<path d="M244.73 40.8175C242.816 40.8175 241.075 40.5564 239.509 39.9471C237.942 39.3379 236.724 38.5547 235.766 37.4233L239.073 34.8123C239.944 35.6826 240.814 36.2919 241.858 36.64C242.903 36.9881 243.947 37.1622 245.079 37.1622C245.514 37.1622 245.949 37.0751 246.384 36.9881C246.732 36.9011 247.08 36.727 247.341 36.5529C247.602 36.3789 247.863 36.1178 247.951 35.8567C248.125 35.5956 248.212 35.3345 248.212 34.9864C248.212 34.3772 247.951 33.942 247.428 33.5939C247.167 33.4198 246.732 33.2458 246.123 33.0717C245.514 32.8977 244.73 32.6366 243.773 32.4625C242.294 32.1144 240.988 31.6792 240.031 31.2441C238.986 30.8089 238.29 30.2867 237.681 29.6775C237.246 29.2424 236.811 28.6332 236.637 28.111C236.375 27.5018 236.288 26.8925 236.288 26.1963C236.288 25.326 236.462 24.5427 236.898 23.8465C237.333 23.1502 237.942 22.541 238.638 22.0188C239.422 21.4966 240.292 21.0615 241.249 20.8004C242.294 20.5393 243.338 20.3652 244.382 20.3652C245.514 20.3652 246.558 20.4523 247.602 20.7134C248.647 20.9744 249.604 21.3226 250.561 21.7577C251.432 22.1929 252.215 22.8021 252.911 23.4113L250.039 26.1963C249.517 25.7611 248.908 25.326 248.299 24.9779C247.689 24.6297 247.08 24.3686 246.384 24.1076C245.775 23.9335 245.166 23.7594 244.556 23.7594C244.034 23.7594 243.512 23.8465 243.164 23.8465C242.729 23.9335 242.381 24.0205 242.119 24.1946C241.858 24.3686 241.597 24.5427 241.51 24.8038C241.336 25.0649 241.249 25.326 241.249 25.6741C241.249 25.9352 241.336 26.2833 241.51 26.5444C241.684 26.8055 241.858 26.9796 242.119 27.1536C242.468 27.3277 242.903 27.5018 243.512 27.7628C244.121 28.0239 244.904 28.198 245.862 28.3721C247.254 28.7202 248.386 29.0683 249.256 29.4164C250.213 29.8516 250.91 30.2867 251.432 30.8089C251.954 31.2441 252.302 31.7663 252.563 32.3755C252.824 32.9847 252.911 33.5939 252.911 34.3772C252.911 35.5086 252.563 36.5529 251.78 37.5103C251.084 38.4676 250.039 39.1639 248.734 39.6861C247.689 40.5564 246.297 40.8175 244.73 40.8175Z" fill="white"/>
<path d="M255.609 25.0649V20.8003H269.882V25.0649H255.609ZM259.961 40.4693V15.8396H265.096V40.4693H259.961Z" fill="white"/>
<path d="M57.6143 23.3242C56.657 23.3242 55.7867 23.1501 55.0034 22.802C53.0017 22.0187 51.4352 20.3652 50.8259 18.3634C52.2184 17.7542 53.4369 16.7969 54.4812 15.6655L55.3515 14.7082L54.5683 13.7508C53.5239 12.4454 52.1314 11.488 50.5648 10.8788L50.3038 10.7918C49.1724 10.3566 48.041 10.1826 46.8225 10.1826C44.4727 10.1826 42.2099 10.9658 40.4693 12.4454C38.9898 13.6638 37.3362 14.4471 35.2474 14.4471C31.07 14.4471 27.5017 11.401 26.8055 7.31055C25.6741 7.39758 25.2389 7.57164 24.1945 7.7457C15.7526 9.66038 9.48634 17.145 9.48634 26.1092C9.48634 31.331 11.6621 36.3788 15.4915 39.9471L15.5785 40.0341C15.8396 40.2952 16.1877 40.5563 16.4488 40.8174C18.2764 42.471 19.6689 44.5597 20.4522 46.9095L20.8003 47.8669H30.8959V46.3873C30.8959 45.6911 31.157 44.9949 31.6792 44.5597C32.3754 43.8634 33.4198 43.6024 34.3771 43.8634C35.5085 44.2116 36.2918 45.2559 36.2918 46.3873V47.8669H46.6485L46.9966 46.8225C48.7372 41.8617 52.8276 38.1194 57.8754 36.7269L59.0068 36.4658V23.4112H57.6143V23.3242ZM56.0478 34.116C50.913 35.8566 46.6485 39.686 44.5597 44.7338H39.1638C38.6416 42.9061 37.1621 41.4266 35.2474 40.8174C34.7253 40.6433 34.2031 40.5563 33.5939 40.5563C32.0273 40.5563 30.6348 41.1655 29.5034 42.2099C28.8072 42.9061 28.372 43.7764 28.1109 44.6467H22.8891C21.8447 42.2969 20.3652 40.1211 18.4505 38.3805C18.1024 38.1194 17.8413 37.8583 17.4932 37.5102C14.273 34.5512 12.4454 30.2867 12.4454 25.9351C12.4454 18.3634 17.7543 12.0102 24.8038 10.4437C26.5444 14.0119 30.4607 16.7969 34.8993 16.7969C36.814 16.7969 38.6416 16.2747 40.2952 15.4044C40.4693 15.3174 40.5563 15.2303 40.6433 15.1433C40.8174 15.0563 41.0785 14.8822 41.2526 14.7952C41.4266 14.6211 41.6007 14.5341 41.7747 14.4471C43.0802 13.3157 44.7338 12.9675 46.5614 12.9675C47.4317 12.9675 48.3891 13.1416 49.1724 13.4897L49.3464 13.5768C49.9556 13.8379 50.5648 14.186 51.087 14.6211C50.3038 15.2303 49.5205 15.6655 48.5631 15.9266L47.2577 16.2747L47.4317 17.5802C47.9539 21.1484 50.3908 24.1945 53.785 25.587C54.4812 25.8481 55.2645 26.1092 56.0478 26.1962V34.116Z" fill="white"/>
<path d="M34.8993 10.5307C37.1584 10.5307 38.9898 8.69939 38.9898 6.4403C38.9898 4.18121 37.1584 2.34985 34.8993 2.34985C32.6402 2.34985 30.8089 4.18121 30.8089 6.4403C30.8089 8.69939 32.6402 10.5307 34.8993 10.5307Z" fill="white"/>
<path d="M34.8993 10.5307C37.1584 10.5307 38.9898 8.69939 38.9898 6.4403C38.9898 4.18121 37.1584 2.34985 34.8993 2.34985C32.6402 2.34985 30.8089 4.18121 30.8089 6.4403C30.8089 8.69939 32.6402 10.5307 34.8993 10.5307Z" fill="white"/>
</svg>
