<svg width="41" height="40" viewBox="0 0 41 40" fill="none" xmlns="http://www.w3.org/2000/svg">
<g clip-path="url(#clip0_49_251)">
<path d="M27.9364 0.00439453H34.9206C37.7778 0.00439453 40.2116 2.33244 40.2116 5.2954V12.3853C40.2116 15.2424 37.8836 17.6763 34.9206 17.6763H27.9364C25.0792 17.6763 22.6454 15.3483 22.6454 12.3853V5.2954C22.6454 2.33244 24.9734 0.00439453 27.9364 0.00439453Z" fill="#00BD74"/>
<path opacity="0.4" d="M27.9364 40.0042C25.0793 40.0042 22.6454 37.6761 22.6454 34.7132V27.6233C22.6454 24.7661 24.9735 22.3323 27.9364 22.3323H34.9207C37.7778 22.3323 40.2117 24.6603 40.2117 27.6233V34.7132C40.2117 37.5703 37.8836 40.0042 34.9207 40.0042H27.9364ZM5.39696 40.0042C2.53982 40.0042 0.105957 37.6761 0.105957 34.7132V27.6233C0.105957 24.7661 2.434 22.3323 5.39696 22.3323H12.3809C15.2381 22.3323 17.6719 24.6603 17.6719 27.6233V34.7132C17.6719 37.5703 15.3439 40.0042 12.3809 40.0042H5.39696ZM5.39696 17.6763C2.53982 17.6763 0.105957 15.3483 0.105957 12.3853V5.2954C0.105957 2.43826 2.434 0.00439453 5.39696 0.00439453H12.3809C15.2381 0.00439453 17.6719 2.33244 17.6719 5.2954V12.3853C17.6719 15.2424 15.3439 17.6763 12.3809 17.6763H5.39696Z" fill="#00BD74"/>
</g>
<defs>
<clipPath id="clip0_49_251">
<rect width="40.3175" height="40" fill="white"/>
</clipPath>
</defs>
</svg>
