<?xml version="1.0" encoding="UTF-8" standalone="no"?>
<!-- Created with Inkscape (http://www.inkscape.org/) -->

<svg
   version="1.1"
   id="svg1"
   width="1281.9733"
   height="166.70667"
   viewBox="0 0 1281.9733 166.70667"
   sodipodi:docname="Oracle_cmyk_03_91_86_12.eps"
   xmlns:inkscape="http://www.inkscape.org/namespaces/inkscape"
   xmlns:sodipodi="http://sodipodi.sourceforge.net/DTD/sodipodi-0.dtd"
   xmlns="http://www.w3.org/2000/svg"
   xmlns:svg="http://www.w3.org/2000/svg">
  <defs
     id="defs1" />
  <sodipodi:namedview
     id="namedview1"
     pagecolor="#ffffff"
     bordercolor="#000000"
     borderopacity="0.25"
     inkscape:showpageshadow="2"
     inkscape:pageopacity="0.0"
     inkscape:pagecheckerboard="0"
     inkscape:deskcolor="#d1d1d1">
    <inkscape:page
       x="0"
       y="0"
       inkscape:label="1"
       id="page1"
       width="1281.9733"
       height="166.70667"
       margin="0"
       bleed="0" />
  </sodipodi:namedview>
  <g
     id="g1"
     inkscape:groupmode="layer"
     inkscape:label="1">
    <g
       id="group-R5">
      <path
         id="path2"
         d="m 8756.25,217.91 c -183.43,0 -338.06,123.172 -385.82,291.629 h 1017.58 l 140.23,218.297 H 8370.43 c 47.57,168.832 202.39,291.634 385.82,291.634 h 698.66 l 139.65,218.86 h -854.23 c -341.66,0 -618.89,-277.228 -618.89,-619.642 C 8121.44,276.648 8398.67,0 8740.33,0 h 734.85 l 139.66,217.91 H 8756.25 M 5844.3,0 h 734.85 l 139.09,217.91 H 5860.6 c -222.27,0 -401.34,179.832 -401.34,400.778 0,221.894 179.07,400.782 401.34,400.782 h 698.09 l 140.8,218.86 H 5844.3 c -342.22,0 -620.21,-277.228 -620.21,-619.642 C 5224.09,276.648 5502.08,0 5844.3,0 M 1322.76,217.91 H 635.281 c -221.234,0 -400.5,179.832 -400.5,400.778 0,221.894 179.266,400.782 400.5,400.782 h 687.479 c 221.99,0 401.06,-178.888 401.06,-400.782 0,-220.946 -179.07,-400.778 -401.06,-400.778 M 619.457,0 h 719.783 c 342.42,0 618.13,276.648 618.13,618.688 0,342.414 -275.71,619.642 -618.13,619.642 H 619.457 C 277.422,1238.33 0,961.102 0,618.688 0,276.648 277.422,0 619.457,0 M 3126.17,400.961 c 231.84,0 418.25,187.602 418.25,418.781 0,231.178 -186.41,418.588 -418.25,418.588 H 2084.33 V 0 h 238.1 v 1019.47 h 787.91 c 110.58,0 200.2,-89.259 200.2,-199.728 0,-110.285 -89.62,-201.054 -200.2,-201.054 l -671.47,0.57 L 3150.04,0 h 345.49 l -477.66,400.961 h 108.3 M 7065.21,218.672 V 1238.33 H 6826.63 V 118.43 c 0,-30.5081 12.89,-60.4495 35.25,-82.0511 C 6884.62,12.8789 6915.88,0 6948.67,0 h 1084.85 l 141.36,218.672 H 7065.21 M 4150.8,436.59 h 635.18 L 4450.39,978.156 3834.35,0 h -281.4 l 750.02,1173.91 c 32.02,47.55 86.97,76.36 147.04,76.36 58.75,0 112.75,-27.86 144.77,-74.28 L 5347.07,0 H 5066.43 L 4934.17,218.672 H 4291.02 L 4150.8,436.59"
         style="fill:#d1272c;fill-opacity:1;fill-rule:nonzero;stroke:none"
         transform="matrix(0.13333333,0,0,-0.13333333,0,166.70667)" />
    </g>
  </g>
</svg>
