<svg width="42" height="40" viewBox="0 0 42 40" fill="none" xmlns="http://www.w3.org/2000/svg">
<g clip-path="url(#clip0_49_241)">
<path opacity="0.4" d="M38.3607 16.5027C38.4699 15.6284 38.5792 14.8634 38.5792 13.9891C38.5792 6.22951 32.3497 0 24.5902 0C17.9235 0 12.2404 4.69945 10.929 11.0383C4.80874 11.2568 0 16.2842 0 22.4044C0 28.6339 5.13661 33.7705 11.3661 33.7705C11.4754 33.7705 11.694 33.7705 11.8033 33.7705H31.2568C31.3661 33.7705 31.5847 33.7705 31.694 33.7705C37.1585 33.7705 41.5301 29.3989 41.5301 23.9344C41.6393 20.9836 40.3279 18.3607 38.3607 16.5027Z" fill="#00BD74"/>
<path d="M28.7431 25.2458C28.0874 25.9015 27.2131 25.9015 26.5573 25.2458L23.2786 21.9671V38.4698C23.2786 39.3441 22.6229 39.9999 21.7486 40.1092C20.8743 40.1092 20.2185 39.4534 20.1092 38.5791V38.4698V21.9671L16.8305 25.2458C16.1748 25.9015 15.3005 25.9015 14.6448 25.2458C13.989 24.59 13.989 23.7157 14.6448 23.06L20.5464 17.1584C20.9836 16.7212 21.6393 16.6119 22.1857 16.8305C22.4043 16.9398 22.5136 17.0491 22.7322 17.1584L28.6338 23.06C29.2896 23.7157 29.2896 24.59 28.7431 25.2458Z" fill="#00BD74"/>
</g>
<defs>
<clipPath id="clip0_49_241">
<rect width="41.6393" height="40" fill="white"/>
</clipPath>
</defs>
</svg>
