<?xml version="1.0" encoding="utf-8"?>
<!-- Generator: Adobe Illustrator 24.0.1, SVG Export Plug-In . SVG Version: 6.00 Build 0)  -->
<svg version="1.1" id="Layer_1" xmlns="http://www.w3.org/2000/svg" xmlns:xlink="http://www.w3.org/1999/xlink" x="0px" y="0px"
	 viewBox="0 0 1557.3 321" style="enable-background:new 0 0 1557.3 321;" xml:space="preserve">
<style type="text/css">
	.st0{fill:#123270;}
</style>
<title>Randoli_1</title>
<g id="Layer_2_1_">
	<g id="Layer_1-2">
		<g>
			<path class="st0" d="M221.1,318c-1.4,1.8-3.7,2.9-6,2.9c-1.3,0.1-2.6,0-3.8-0.1c-8.1-0.9-16.3-0.5-24.4-0.3
				c-1.9,0-3.8,0.2-5.8,0.2c-37.3,0-74.5,0-111.8,0c-8.2,0-16.3-0.4-24.3-2.5c-9.8-2.6-18.5-6.9-26-13.8c-9-8.3-14.4-18.6-17.1-30.5
				C0.6,268.2,0,262.3,0,256.3C0,192.2,0,128.1,0,64c-0.2-9.8,1.7-19.5,5.4-28.6c5.3-13.1,15.5-23.6,28.4-29.1
				c7.9-3.5,16.4-5.5,25.1-5.7c4.5-0.1,9,0,13.4-0.1c6.9,0,13.8-0.1,20.6-0.1c1.4,0,2.9,0,4.3,0.1c3.2,0.1,5.9,2.3,6.5,5.4
				c0.4,1.7,0.7,3.4,0.7,5.2c0.1,4.2,0,8.3,0,12.5v116.6c-0.2,4,0.2,8,1.1,11.9c0.5,2,1.1,4,1.9,5.9c1.9,4.5,5.6,8,10.2,9.5
				c2.4,0.9,4.9,1.5,7.4,1.8c4.6,0.5,9.2,0.8,13.9,0.8c32.3,0.1,64.6,0.1,96.9,0.1c2.9,0,5.8,0.1,8.6,0.2c2.7,0.1,5.4,0.7,8,1.6
				c4.7,1.5,8.3,5.2,9.7,9.9c1.2,3.7,1.8,7.5,1.8,11.3c0,8,0.1,16,0.1,24c0,13,0,25.9-0.1,38.9c0,3.2-0.3,6.4-0.9,9.5
				c-0.8,4.9-4.3,8.9-9,10.3c-3.5,1.2-7.1,2-10.6,2.9c-2,0.5-4.1,0.8-6,1.5c-1.9,0.5-3.6,1.3-5.2,2.4c-6.3,5.3-11,11.6-11.2,20.3
				c-0.1,2.7,0.2,5.4,0.4,8.1C221.7,313.4,221.6,315.8,221.1,318z"/>
			<path class="st0" d="M228.2,319.9c-0.2-0.4-0.4-0.8-0.6-1.2c-1.2-7.1-1.3-14.3-0.2-21.5c0.6-4.8,3.6-9,7.9-11.2
				c2.8-1.5,5.9-2.6,9-3.2c2-0.4,4.1-0.7,6.1-1.3c2-0.5,4-1.1,5.9-1.9c5.4-2.2,9.5-6.9,10.9-12.6c1-3.6,1.4-7.2,1.4-10.9
				c0-12.8,0-25.6,0-38.4c0-8-0.1-16,0-24c0-3.4-0.3-6.7-1-10c-0.3-1.3-0.6-2.5-1-3.7c-1.8-5.9-6.4-10.6-12.4-12.5
				c-3.8-1.3-7.7-2-11.8-2.1c-7.8,0-15.7-0.1-23.5-0.1c-27.3,0-54.7,0-82,0c-4-0.1-8-0.4-11.9-0.9c-1.9-0.3-3.8-0.8-5.6-1.4
				c-4.4-1.4-7.7-4.8-9.1-9.2c-1.2-3.5-1.8-7.1-1.9-10.8c-0.1-2.2-0.1-4.5-0.1-6.7l-0.1-120.8c0-1.9,0-3.9,0.1-5.8
				c0.4-5.6,3-8.4,8.4-9.3c2.3-0.4,4.7-0.6,7.1-0.4s4.8,0.3,7.2,0.3c36.6,0.1,73.2,0.1,109.8,0.1c7.7,0,15.4-0.2,23,0.2
				c12.4,0.4,24.4,4.6,34.4,11.9c11.9,8.7,19.1,20.4,22.1,34.8c0.7,3.8,1.1,7.6,1.2,11.4c1,42.5,0.8,85,0.8,127.6
				c0,13.9,0,27.8-0.2,41.7c-0.1,12.1-0.3,24.3-0.7,36.4c-0.4,12.6-5.2,24.6-13.5,34.1c-10.3,12.1-23.6,18.9-39.2,21.3
				c-4.4,0.6-8.9,0.9-13.4,0.9c-7.5,0.1-15,0.1-22.6,0C231.3,320.8,229.7,321.1,228.2,319.9z M248.5,51.4c-1.9,0.6-3.8,1.3-5.7,2.1
				c-3.6,1.9-6.2,4.7-6.7,8.8c-0.3,2.4-0.3,4.8,0,7.1c0.7,5.1,4.7,9.1,9.8,9.7c1.9,0.2,3.8,0.3,5.7,0.1c5.9-0.2,10.6-4.8,11.1-10.6
				c0.2-1.6,0.2-3.2,0.1-4.8c-0.1-4.8-3.2-9-7.7-10.6C253.1,52.5,250.9,52.1,248.5,51.4z"/>
			<path class="st0" d="M1122.4,133.3c0.9-2,0.6-3.6,0.6-5.1c0-12,0-24,0-36c0-15.3,0-30.7,0-46c-0.1-2.9,0.3-5.8,1.1-8.5
				c1.6-5.8,6.3-10.4,12.1-11.8c2.6-0.9,5.3-1.2,8-0.8c7,1.5,11,6.1,13,12.7c0.8,2.8,1.2,5.7,1.1,8.5c0,5.3,0,10.5,0,15.8
				c0,45.4,0,90.8,0,136.2c0.1,11.9-1.8,23.6-5.7,34.8c-9,25.2-25.9,43-50.5,53.5c-12.1,5.1-25.1,7.7-38.3,7.9
				c-10.6,0.4-21.1-1.1-31.2-4.4c-20.6-7-36.6-19.9-48.3-38.3c-7.4-11.6-12.2-24.8-14-38.5c-1-7.4-1.2-15-0.6-22.5
				c0.9-10.2,3.3-20.2,7-29.8c7.8-19.7,20.5-35.3,38.8-46c11.9-7,25.4-10.8,39.3-11c16.9-0.4,33.5,4.2,47.8,13.2
				c5.4,3.4,10.4,7.4,14.9,12C1119.1,130.8,1120.6,132.1,1122.4,133.3z M1064.2,263.8c3-0.2,6.1-0.1,9.1-0.6
				c11.6-1.7,22.4-6.9,31-15c12.5-11.7,18.9-26.4,20.4-43.2c1-10.7-0.6-21.5-4.7-31.5c-5.7-14.4-15.2-25.4-29.1-32.5
				c-8.9-4.5-18.8-6.7-28.7-6.3c-15.4,0.4-28.7,5.9-39.7,16.7c-14.1,13.8-19.7,31.1-19.3,50.4c0.2,5.8,1,11.5,2.7,17
				c3.6,12.6,10.2,23.4,20.5,31.7C1037.1,259.4,1050.4,264,1064.2,263.8z"/>
			<path class="st0" d="M684.2,267.4c-1.7,0.2-2.4,1.3-3.3,2.2c-6.1,5.6-12.9,10.5-20.2,14.6c-11.8,6.6-25,10.2-38.5,10.3
				c-13.2,0.2-26.2-2.5-38.2-7.9c-11.6-5.2-21.8-13-30-22.7c-10.9-12.9-17.5-27.8-20.5-44.3c-1.5-8-2.1-16.2-1.7-24.4
				c1.6-26.2,11.3-48.7,30.8-66.6c12.6-11.5,27.4-18.7,44-22.3c9.4-2.1,19-2.7,28.6-1.8c13.3,1.1,26.1,5.1,37.7,11.6
				c20,11.3,34.1,27.7,42.2,49.2c3.6,9.4,5.5,19.4,5.6,29.5c0.1,15.8,0.1,31.7,0.2,47.5c0,8.9,0,17.9,0,26.9c0,2.4,0,4.8-0.2,7.2
				c-0.1,2.6-0.7,5.1-1.7,7.5c-1.7,4.8-5.8,8.3-10.9,9.2c-3,0.6-6.1,0.6-9.1,0c-7-1.4-11.2-5.9-12.9-12.7c-0.5-2.3-0.8-4.7-1-7.1
				c-0.2-1.4-0.2-2.9-0.4-4.3C684.8,268.3,684.5,267.8,684.2,267.4z M687.4,195.9c0.2-6.1-1.6-15.2-5.4-24
				c-10.8-25.2-37.2-42.2-68-35.6c-19.6,4.2-33.5,16.1-41.7,34.2s-8.2,36.9-1,55.5c3.4,8.8,8.8,16.7,15.9,23
				c13.9,12.4,30.3,16.8,48.5,14.2c16.4-2.4,29.6-10.7,39.3-24.2C683.5,227.2,687.2,213.9,687.4,195.9L687.4,195.9z"/>
			<path class="st0" d="M1291.5,294.3c-12,0.3-24-1.7-35.3-5.7c-25.2-9.1-42.8-26.2-52.5-51.2c-3.1-8.1-5.1-16.5-6-25.1
				c-0.7-6-0.9-12.1-0.7-18.2c1-20.6,6.9-39.6,19.8-56c6.7-8.6,15.1-15.7,24.6-21.1c9.9-5.6,20.8-9.3,32-11
				c5.2-0.9,10.5-1.3,15.8-1.4c18.9-0.1,36.9,3.6,53.3,13.4c12,7.2,22,17.2,29.1,29.3c6.9,11.9,11.2,25.2,12.7,38.9
				c0.8,6.4,1,12.8,0.7,19.1c-0.7,15.2-4.1,29.7-11.5,43.2c-11.7,21.3-29.4,35.1-52.6,41.8C1311.3,293.2,1301.4,294.5,1291.5,294.3z
				 M1230,200.7c0.1,6.1,0.9,12.1,2.4,18c6.7,22.7,21.3,37.4,44.3,43.4c6.4,1.7,13,1.7,19.5,1.5c3.4-0.1,6.7-0.5,10-1.3
				c11-2.6,20.9-8.4,28.6-16.7c7-7.7,12-17.1,14.6-27.2c2-7.5,2.3-15.1,2.2-22.8c-0.2-8.7-2-17.2-5.5-25.1
				c-7.3-16.6-19.4-27.9-36.9-33.2c-9.2-2.8-19-3.3-28.5-1.6c-18.6,3.3-32.7,13.1-42,29.5C1232.6,176,1230.1,187.6,1230,200.7
				L1230,200.7z"/>
			<path class="st0" d="M796.5,123.4c1.8-1.2,3.2-2.1,4.5-3c18.7-13,41.7-18.6,64.3-15.4c9.7,1.3,19.1,4.1,27.9,8.4
				c10.3,5,19.1,12.5,25.6,21.9c8.3,11.7,13.6,25.2,15.4,39.4c0.6,4.3,0.8,8.6,0.9,12.9c0,18.7,0.1,37.4,0.1,56.1
				c0,9.1,0,18.2,0,27.3c0,2.1-0.1,4.2-0.2,6.2c-0.1,2.2-0.7,4.4-1.6,6.5c-1.5,3.8-4.5,6.7-8.2,8.2c-3.5,1.5-7.4,2-11.3,1.5
				c-3.5-0.6-6.7-2.5-8.8-5.3c-2.4-3-4-6.6-4.5-10.5c-0.5-3-0.7-6-0.8-9.1c-0.1-19,0-38.1-0.1-57.1c0-8.8-0.1-17.6,0-26.4
				c0-4.8-0.7-9.6-1.9-14.2c-3-12.2-11.1-22.4-22.3-28.1c-8.4-4.4-17.6-7-27-7.8c-5.3-0.3-10.6,0.2-15.7,1.6
				c-10.3,2.5-19.7,7.9-27.2,15.4c-6.6,6.6-9.8,14.8-10.6,24c-0.2,2.6-0.1,5.1-0.1,7.7c0,28.9,0,57.9,0,86.8c0.1,3-0.2,6-0.9,9
				c-1.2,5.8-5.3,10.5-10.9,12.4c-2.7,1.1-5.5,1.6-8.4,1.4c-5.4-0.5-10.1-3.9-12.3-8.8c-1.9-4.1-2.8-8.5-2.8-13
				c-0.1-4.5-0.1-9-0.1-13.4l0.1-127.1c0-2.4,0-4.8-0.1-7.2c0-2.4,0.3-4.8,1-7.1c1.1-4.2,4.1-7.8,8.1-9.7c3-1.5,6.3-2.3,9.7-2.2
				c3.6,0,7,1.4,9.6,3.8c1.9,1.7,3.4,3.8,4.5,6.1c0.9,1.9,1.7,3.8,2.6,5.7C795.3,121.7,795.9,122.6,796.5,123.4z"/>
			<path class="st0" d="M1416.8,149.1c0-37.3,0-69,0-100.6c0-3.2,0.2-6.4,0.8-9.5c0.2-1.3,0.6-2.5,1-3.7c2.3-6.2,6.8-9.5,13.4-9.8
				c1.9-0.1,3.8-0.1,5.7,0.1c4.6,0.4,8.6,3.2,10.6,7.3c2,3.8,2.4,7.9,2.7,12.1c0.1,1.4,0,2.9,0,4.3c-0.2,15.2-0.7,30.4-0.4,45.5
				c0.8,43.8,0.1,87.6,0.4,131.4c0,3,0.1,6.1,0.2,9.1c0.2,2.9,0.7,5.7,1.6,8.5c1.4,4.8,4.9,8.8,9.6,10.8c3.1,1.4,6.3,2.4,9.6,3.1
				c1.9,0.4,3.8,0.7,5.7,1.1c1.6,0.3,3.1,0.7,4.6,1.3c3.5,1.3,6.3,4,7.8,7.4c1.7,3.8,2.2,8.1,1.4,12.2c-0.5,2.4-1.6,4.6-3.4,6.2
				c-2.9,3-6.6,5.1-10.6,6.2c-5.3,1.5-10.8,1.8-16.2,0.8c-11.9-1.9-21.5-7.7-29.3-16.8c-7.4-8.5-12.2-19-13.9-30.1
				c-0.4-3.5-0.6-7-0.6-10.5C1416.5,204.8,1417.1,174.1,1416.8,149.1z"/>
			<path class="st0" d="M438.3,126.6c0.8-0.6,1.6-1.1,2.3-1.7c3.8-3.2,7.8-6.2,11.9-8.8c9.5-6.2,20.4-10.2,31.7-11.5
				c9.5-1.1,19.2-0.8,28.6,1.1c3.6,0.7,7.1,2,10.4,3.6c2.6,1.2,4.9,3,6.8,5.2c2.8,3.2,4,6.9,2.8,11.1c-0.4,1.7-1,3.3-1.8,4.9
				c-1.9,4-5.9,6.6-10.4,6.6c-2.9,0.2-5.8-0.1-8.5-0.8c-8.4-2.1-17.1-2.7-25.7-1.7c-4.1,0.5-8.3,0.5-12.4,1.3
				c-5.8,1-11.5,3-16.6,5.9c-6.6,3.7-12,9.3-15.3,16.1c-2.3,4.7-3.9,9.8-4.6,15.1c-0.6,4.4-0.9,8.9-0.9,13.4c0,27.2,0,54.3,0,81.5
				c0,2.6,0,5.1,0,7.7c-0.1,2.9-0.6,5.7-1.6,8.4c-1.3,3.7-4.1,6.6-7.8,8c-4,1.6-8.5,2-12.7,1.2c-3.9-0.7-7.2-3.1-9-6.6
				c-1.4-2.5-2.2-5.3-2.5-8.2c-0.4-4-0.7-8-0.7-12c-0.1-32.6-0.1-65.2,0-97.8c0-12.8,0-25.6-0.1-38.3c-0.1-3.5,0.2-7,0.8-10.5
				c0.4-1.9,0.9-3.7,1.7-5.5c1.4-3.5,4.3-6.1,7.9-7.3c4-1.3,8-2,12.3-1c4.3,0.9,7.9,3.9,9.6,7.9c1.1,2.5,1.9,5.1,2.2,7.8
				c0.1,1.3,0.3,2.5,0.6,3.8C437.4,125.7,437.8,126.1,438.3,126.6z"/>
			<path class="st0" d="M1551.3,199.3v71.5c0.1,3.4-0.1,6.7-0.8,10c-1.8,6.7-6,10.7-12.8,12c-3.6,0.7-7.4,0.4-10.9-0.9
				c-4.1-1.5-7.4-4.7-8.9-8.8c-1.2-3.3-1.9-6.8-2-10.3c-0.1-1.3,0-2.6,0-3.8c0-46.5,0-93,0-139.6c-0.1-3,0.2-6.1,0.7-9.1
				c0.1-0.3,0.1-0.6,0.2-1c2.1-10,10.1-15.5,20.2-13.9c7,1.1,11.5,5,13.5,11.9c0.7,2.5,1,5,1,7.6c0,5.3,0,10.6,0,15.8
				C1551.3,160.3,1551.3,179.8,1551.3,199.3L1551.3,199.3z"/>
			<path class="st0" d="M1511.6,52.5c-0.5-10.3,8.5-22.4,21.4-23.9c5.2-0.5,10.3,0.9,14.5,4c8.4,5.7,11.9,16.3,8.6,25.8
				c-3.2,9.2-9.8,15-19.4,16.6c-8.8,1.4-16-2.1-21.2-9.4C1512.8,61.8,1511.4,57.2,1511.6,52.5z"/>
		</g>
	</g>
</g>
</svg>
