<svg xmlns="http://www.w3.org/2000/svg" fill="none" viewBox="0 0 330 36">
  
    <path fill="#023927" d="M36.21 29.91V7.42h4.08v12.43h.58l5.3-5.87h5.3l-7.4 7.72 7.66 8.21h-5.24l-5.62-6.32h-.58v6.32h-4.08Zm23.44.27a6.4 6.4 0 0 1-3.29-.85 5.72 5.72 0 0 1-2.17-2.37 7.3 7.3 0 0 1-.77-3.47v-9.51h4.06v9.19c0 1.21.29 2.1.9 2.69.58.6 1.43.9 2.54.9 1.24 0 2.22-.43 2.91-1.25a5.22 5.22 0 0 0 1.03-3.45v-8.08h4.08V29.9H64.9v-2.08h-.58a4.66 4.66 0 0 1-1.46 1.58c-.69.5-1.77.77-3.2.77Zm21.47.18a6.2 6.2 0 0 1-3.34-.74A5.4 5.4 0 0 1 76.06 28h-.58v1.92h-4V7.42h4.08v8.4h.58a4.52 4.52 0 0 1 2.55-1.92 7.34 7.34 0 0 1 2.43-.34 6.98 6.98 0 0 1 6.22 3.74 8.97 8.97 0 0 1 1.01 4.42v.53a9.1 9.1 0 0 1-1 4.42 7.12 7.12 0 0 1-2.65 2.8 6.98 6.98 0 0 1-3.58.89Zm-1.22-3.53c1.25 0 2.3-.4 3.13-1.21.84-.8 1.27-1.98 1.27-3.53v-.32c0-1.55-.43-2.7-1.25-3.52a4.39 4.39 0 0 0-3.15-1.22c-1.24 0-2.3.4-3.12 1.22-.85.81-1.27 1.97-1.27 3.52v.32c0 1.55.42 2.71 1.27 3.53a4.22 4.22 0 0 0 3.12 1.21Zm17.96 3.53c-1.6 0-3-.34-4.21-1a7.06 7.06 0 0 1-2.84-2.87 8.79 8.79 0 0 1-1-4.35v-.4c0-1.65.34-3.13 1-4.34a7.16 7.16 0 0 1 2.8-2.87c1.23-.68 2.6-1 4.22-1 1.56 0 2.94.34 4.1 1.05a6.99 6.99 0 0 1 2.7 2.9c.64 1.24.98 2.66.98 4.3v1.36H93.96a3.65 3.65 0 0 0 1.22 2.66 4.12 4.12 0 0 0 2.83 1.03c1.14 0 1.99-.24 2.52-.74s.95-1.02 1.22-1.63l3.33 1.74c-.29.55-.74 1.16-1.3 1.82a6.86 6.86 0 0 1-2.27 1.66c-1 .47-2.2.68-3.65.68Zm-3.92-10.25h7.49a3.11 3.11 0 0 0-1.11-2.2 3.86 3.86 0 0 0-2.57-.85c-1.09 0-1.96.29-2.62.84a3.65 3.65 0 0 0-1.2 2.21Zm21.47 10.25a8.86 8.86 0 0 1-4.21-.97 7.26 7.26 0 0 1-3-2.8 8.32 8.32 0 0 1-1.08-4.42v-.45a8.5 8.5 0 0 1 1.09-4.42 7.26 7.26 0 0 1 2.99-2.8 9.34 9.34 0 0 1 4.21-.97c1.54 0 2.83.26 3.95.82a7.06 7.06 0 0 1 2.67 2.21 7.7 7.7 0 0 1 1.35 3.16l-3.94.82a4.84 4.84 0 0 0-.59-1.74 2.92 2.92 0 0 0-1.27-1.21 4.4 4.4 0 0 0-2.04-.45c-.82 0-1.56.18-2.22.53-.66.34-1.17.86-1.56 1.58a5.36 5.36 0 0 0-.56 2.55v.32c0 1 .19 1.87.56 2.55.37.69.9 1.21 1.56 1.58.66.34 1.4.53 2.22.53 1.22 0 2.17-.32 2.8-.95a4.56 4.56 0 0 0 1.23-2.5l3.94.92a9.5 9.5 0 0 1-1.43 3.1 7.35 7.35 0 0 1-2.67 2.22 9.4 9.4 0 0 1-4 .79Zm17.74 0a9.18 9.18 0 0 1-4.29-.97 7.1 7.1 0 0 1-3-2.8 8.29 8.29 0 0 1-1.08-4.4v-.52a8.5 8.5 0 0 1 1.09-4.4 7.26 7.26 0 0 1 3-2.8 9.52 9.52 0 0 1 4.28-.97c1.59 0 3.02.32 4.29.98a7.1 7.1 0 0 1 3 2.79 8.29 8.29 0 0 1 1.08 4.4v.53c0 1.7-.37 3.18-1.09 4.4a7.26 7.26 0 0 1-2.99 2.79c-1.27.65-2.7.97-4.29.97Zm0-3.58a4.2 4.2 0 0 0 3.1-1.21c.82-.82 1.22-1.95 1.22-3.45v-.32c0-1.5-.4-2.66-1.22-3.45a4.33 4.33 0 0 0-3.13-1.21 4.2 4.2 0 0 0-3.1 1.21c-.81.79-1.21 1.95-1.21 3.45v.32c0 1.5.4 2.66 1.22 3.45a4.3 4.3 0 0 0 3.12 1.2Zm16.87 3.58c-2.1 0-3.82-.45-5.14-1.34a5.5 5.5 0 0 1-2.4-3.85l3.75-.97c.16.73.4 1.34.77 1.76.34.42.8.74 1.32.92.53.19 1.12.27 1.72.27.96 0 1.65-.16 2.1-.5.45-.35.68-.74.68-1.24s-.2-.87-.63-1.13a6.5 6.5 0 0 0-2.07-.66l-.9-.16c-1.1-.21-2.14-.5-3.07-.9a5.53 5.53 0 0 1-2.22-1.55 3.89 3.89 0 0 1-.85-2.58c0-1.58.58-2.8 1.75-3.64a7.66 7.66 0 0 1 4.58-1.26c1.8 0 3.28.4 4.45 1.19a5.51 5.51 0 0 1 2.33 3.1l-3.79 1.16c-.19-.81-.53-1.4-1.06-1.74a3.56 3.56 0 0 0-1.96-.52c-.77 0-1.38.13-1.77.4-.4.26-.61.62-.61 1.1 0 .53.21.9.63 1.13.43.24 1.01.42 1.75.55l.9.16c1.22.21 2.3.5 3.28.85.98.34 1.75.86 2.34 1.5.58.65.84 1.52.84 2.66 0 1.66-.6 2.95-1.83 3.87-1.21.97-2.85 1.42-4.9 1.42Zm14.8-.45c-1.06 0-1.9-.31-2.57-.97a3.5 3.5 0 0 1-.98-2.61v-9h-4v-3.35h4V9.03h4.08v4.95h4.4v3.34h-4.4v8.3c0 .63.29.97.9.97h3.5v3.35h-4.93v-.03Z"/>
    <path fill="#64E892" d="M11.46 20.67C5.18 20.67.28 23.9.28 28.04c0 4.14 4.9 7.38 11.18 7.38 6.27 0 11.17-3.24 11.17-7.38 0-4.13-4.9-7.37-11.17-7.37Zm0 11.77c-3.87 0-8.18-1.82-8.18-4.4s4.31-4.4 8.18-4.4c.9 0 1.82.1 2.7.3 1.24.18 7.12 1.97 5.24 5.13-.93 2.03-4.6 3.37-7.94 3.37Z" style="mix-blend-mode:multiply"/>
    <path fill="#64E892" d="M17.92.28c-4.9 0-7.55 8.48-7.55 16.46s2.65 16.46 7.55 16.46 7.54-8.48 7.54-16.46S22.82.28 17.92.28Zm.5 29.87c-2.54 1.55-4.29-6.24-4.29-6.24-.48-2-.77-4.4-.77-7.14 0-8.24 2.7-13.51 4.56-13.51 1.85 0 4.55 5.27 4.55 13.51 0 7.5-2.25 12.56-4.05 13.38Z" style="mix-blend-mode:multiply"/>
    <path fill="#64E892" d="M18.63 17.8c-4.37-5.59-10.4-8-13.77-5.5A5.38 5.38 0 0 0 2.83 16c-.43 3.14 1 7.17 3.8 10.78 3.21 4.1 7.32 6.5 10.6 6.5 1.2 0 2.28-.31 3.18-.97a5.38 5.38 0 0 0 2.04-3.71c.42-3.16-1.01-7.2-3.82-10.8Zm.77 11.24-.03.03c-.08.16-.18.29-.31.45a52.62 52.62 0 0 0-.3.32l-.07.07c-.06.06-.11.08-.14.1l-.02.03c-.06.03-.1.08-.16.1l-.16.09-.08.02c-.05.03-.08.03-.13.03-2.52.37-6.12-1.63-9-5.37-2.28-2.9-3.55-6.27-3.24-8.56.11-.82.4-1.4.88-1.74a2.5 2.5 0 0 1 1.45-.42c2.12 0 5.43 1.82 8.19 5.37 1.82 2.35 3.28 5.88 3.5 8.03v.08c.02.48-.09.9-.38 1.37Z" style="mix-blend-mode:multiply"/>
  
  <path fill="#023927" d="M188.63 30V9h13.5v3.6h-9.54v5.01h8.7v3.6h-8.7v5.19h9.72V30h-13.68Zm16.13 0V15.12h3.73v1.95h.53c.24-.52.7-1.01 1.35-1.47.66-.48 1.66-.72 3-.72a5.58 5.58 0 0 1 5.07 3c.49.92.72 2 .72 3.24V30h-3.78v-8.58c0-1.12-.28-1.96-.84-2.52-.53-.56-1.31-.84-2.33-.84a3.3 3.3 0 0 0-2.7 1.17 4.84 4.84 0 0 0-.97 3.21V30h-3.78Zm23.18 0a3.3 3.3 0 0 1-2.4-.9c-.6-.62-.9-1.44-.9-2.46v-8.4h-3.72v-3.12h3.72V10.5h3.78v4.62h4.08v3.12h-4.08v7.74c0 .6.28.9.84.9h2.88V30h-4.2Zm13.64.42a8.1 8.1 0 0 1-3.93-.93 6.91 6.91 0 0 1-2.64-2.67 8.53 8.53 0 0 1-.93-4.08v-.36c0-1.56.3-2.91.93-4.05a6.46 6.46 0 0 1 2.6-2.67 7.72 7.72 0 0 1 3.9-.96c1.47 0 2.74.33 3.82.99a6.57 6.57 0 0 1 2.52 2.7c.6 1.14.9 2.47.9 3.99v1.29h-10.83a3.36 3.36 0 0 0 1.14 2.49c.72.64 1.6.96 2.64.96 1.06 0 1.84-.23 2.34-.69.5-.46.88-.97 1.14-1.53l3.09 1.62a9.65 9.65 0 0 1-1.23 1.71 6.7 6.7 0 0 1-2.1 1.56c-.88.42-2 .63-3.36.63Zm-3.63-9.57h6.96a2.94 2.94 0 0 0-1.05-2.07 3.49 3.49 0 0 0-2.37-.78c-1.02 0-1.83.26-2.43.78-.6.52-.97 1.21-1.11 2.07ZM251.5 30V15.12h3.72v1.68h.54c.22-.6.58-1.04 1.08-1.32a3.74 3.74 0 0 1 1.8-.42h1.8v3.36h-1.86c-.96 0-1.75.26-2.37.78-.62.5-.93 1.28-.93 2.34V30h-3.78Zm11.3 6V15.12h3.71v1.8h.55a4.5 4.5 0 0 1 1.58-1.53 5.75 5.75 0 0 1 3.1-.69 6.45 6.45 0 0 1 5.79 3.48c.61 1.14.92 2.52.92 4.14v.48c0 1.62-.3 3-.92 4.14a6.6 6.6 0 0 1-2.47 2.61 6.62 6.62 0 0 1-3.32.87c-.9 0-1.67-.11-2.29-.33-.6-.2-1.08-.46-1.46-.78a5.63 5.63 0 0 1-.88-1.02h-.54V36h-3.77Zm7.8-8.88a4 4 0 0 0 2.9-1.11c.79-.76 1.18-1.86 1.18-3.3v-.3c0-1.44-.4-2.53-1.18-3.27a4 4 0 0 0-2.9-1.14 4 4 0 0 0-2.92 1.14c-.77.74-1.17 1.83-1.17 3.27v.3c0 1.44.4 2.54 1.18 3.3a4.06 4.06 0 0 0 2.9 1.11ZM281.34 30V15.12h3.72v1.68h.54c.22-.6.58-1.04 1.08-1.32a3.74 3.74 0 0 1 1.8-.42h1.8v3.36h-1.86c-.96 0-1.75.26-2.37.78-.62.5-.93 1.28-.93 2.34V30h-3.78Zm11.29 0V15.12h3.78V30h-3.78Zm1.89-16.62a2.3 2.3 0 0 1-2.43-2.4 2.3 2.3 0 0 1 2.43-2.4 2.3 2.3 0 0 1 2.43 2.4 2.3 2.3 0 0 1-2.43 2.4Zm11.66 17.04a8.34 8.34 0 0 1-4.77-1.26 5.18 5.18 0 0 1-2.25-3.6l3.48-.9c.14.7.37 1.25.69 1.65.34.4.75.69 1.23.87.5.16 1.04.24 1.62.24.88 0 1.53-.15 1.95-.45.42-.32.63-.71.63-1.17 0-.46-.2-.81-.6-1.05a5.47 5.47 0 0 0-1.92-.63l-.84-.15c-1.04-.2-2-.47-2.85-.81a5.32 5.32 0 0 1-2.07-1.47 3.6 3.6 0 0 1-.78-2.4c0-1.48.54-2.61 1.62-3.39 1.08-.8 2.5-1.2 4.26-1.2 1.66 0 3.04.37 4.14 1.11a5.11 5.11 0 0 1 2.16 2.91l-3.51 1.08a2.4 2.4 0 0 0-1-1.62 3.18 3.18 0 0 0-1.8-.48 2.9 2.9 0 0 0-1.64.39c-.38.24-.57.58-.57 1.02 0 .48.2.84.6 1.08.4.22.94.39 1.62.51l.84.15c1.12.2 2.13.47 3.03.81a4.8 4.8 0 0 1 2.16 1.41c.54.6.8 1.42.8 2.46 0 1.56-.56 2.77-1.7 3.63-1.12.84-2.63 1.26-4.53 1.26Zm15.73 0a8.1 8.1 0 0 1-3.93-.93 6.91 6.91 0 0 1-2.64-2.67 8.53 8.53 0 0 1-.93-4.08v-.36c0-1.56.31-2.91.93-4.05a6.46 6.46 0 0 1 2.61-2.67 7.72 7.72 0 0 1 3.9-.96c1.46 0 2.73.33 3.81.99a6.57 6.57 0 0 1 2.52 2.7c.6 1.14.9 2.47.9 3.99v1.29h-10.83a3.36 3.36 0 0 0 1.14 2.49c.72.64 1.6.96 2.64.96 1.06 0 1.84-.23 2.34-.69.5-.46.88-.97 1.14-1.53l3.1 1.62a9.65 9.65 0 0 1-1.24 1.71 6.7 6.7 0 0 1-2.1 1.56c-.88.42-2 .63-3.36.63Zm-3.63-9.57h6.96a2.94 2.94 0 0 0-1.05-2.07 3.49 3.49 0 0 0-2.37-.78c-1.02 0-1.83.26-2.43.78a3.3 3.3 0 0 0-1.1 2.07Z"/>
</svg>