<svg width="138" height="36" viewBox="0 0 138 36" fill="none" xmlns="http://www.w3.org/2000/svg">
<path fill-rule="evenodd" clip-rule="evenodd" d="M7.99974 3.03355C10.9598 1.05568 14.4399 6.82319e-07 18 6.82319e-07C20.364 -0.000650282 22.7049 0.464492 24.8891 1.36885C27.0732 2.2732 29.0578 3.59904 30.7294 5.27062C32.4009 6.94221 33.7268 8.92678 34.6312 11.1109C35.5355 13.2951 36.0006 15.636 36 18C36 21.5601 34.9443 25.0402 32.9664 28.0003C30.9886 30.9603 28.1774 33.2675 24.8883 34.6298C21.5992 35.9922 17.98 36.3487 14.4884 35.6541C10.9967 34.9596 7.78943 33.2453 5.27209 30.7279C2.75474 28.2106 1.04041 25.0033 0.345873 21.5116C-0.34866 18.02 0.00779801 14.4008 1.37017 11.1117C2.73255 7.82263 5.03966 5.01141 7.99974 3.03355Z" fill="#9C24C7"/>
<path d="M42.1534 7.86042L47.8116 26.5144C47.8407 26.6296 47.9102 26.7306 48.0075 26.7988C48.1049 26.867 48.2235 26.8979 48.3417 26.886H51.7257C51.8401 26.8991 51.9552 26.8678 52.0473 26.7987C52.1394 26.7296 52.2016 26.6279 52.2211 26.5144L57.8149 7.86042C57.8941 7.6226 57.7901 7.43433 57.5473 7.43433H54.9957C54.8864 7.42932 54.7785 7.46063 54.6889 7.52337C54.5993 7.58611 54.5329 7.67675 54.5002 7.78115L51.6365 17.6408C51.0865 19.4987 50.4672 21.7332 50.0956 23.4029H50.0163C49.6695 21.758 49.0601 19.5235 48.53 17.6903L45.6068 7.78115C45.5908 7.67638 45.535 7.58182 45.451 7.51721C45.367 7.45259 45.2613 7.4229 45.1559 7.43433H42.3912C42.3406 7.43192 42.2903 7.44369 42.246 7.46831C42.2016 7.49294 42.1651 7.52944 42.1404 7.57371C42.1156 7.61799 42.1038 7.66828 42.1061 7.71893C42.1084 7.76958 42.1248 7.81858 42.1534 7.86042Z" fill="#9C24C7"/>
<path fill-rule="evenodd" clip-rule="evenodd" d="M69.5224 16.7638V26.5144C69.5279 26.5645 69.522 26.6152 69.5053 26.6628C69.4886 26.7104 69.4614 26.7536 69.4257 26.7893C69.39 26.825 69.3468 26.8522 69.2992 26.8689C69.2517 26.8856 69.2009 26.8915 69.1508 26.886H66.8122C66.7621 26.8915 66.7114 26.8856 66.6638 26.8689C66.6162 26.8522 66.573 26.825 66.5373 26.7893C66.5016 26.7536 66.4744 26.7104 66.4577 26.6628C66.441 26.6152 66.4351 26.5645 66.4406 26.5144V24.7753C66.0108 25.5057 65.3973 26.111 64.6611 26.5308C63.9249 26.9506 63.0916 27.1704 62.2441 27.1684C59.4794 27.1684 57.7255 25.36 57.7255 22.7093C57.7255 20.0586 59.4794 18.5127 63.3044 18.2501C64.3035 18.1752 65.3066 18.1669 66.3069 18.2254V16.8926C66.3069 15.2477 65.4051 14.5837 63.889 14.5837C62.3729 14.5837 61.818 15.1387 61.4365 16.1791C61.3275 16.4714 61.2235 16.521 60.9411 16.4417L58.6273 15.8571C58.3894 15.7778 58.3102 15.644 58.3894 15.431C58.8155 13.36 60.7032 11.9231 64.0228 11.9231C67.4514 11.9231 69.5224 13.5482 69.5224 16.7638ZM66.3069 22.1543V20.3509C65.3951 20.3126 64.4818 20.3292 63.5719 20.4004C61.8428 20.5887 60.8618 21.1733 60.8618 22.5557C60.8618 23.7497 61.6842 24.5375 63.0913 24.5375C64.5827 24.5226 65.7222 23.6457 66.3069 22.1543Z" fill="#9C24C7"/>
<path d="M75.9584 26.5144V17.4773C76.4885 15.9661 77.6578 14.9257 79.0748 14.9257C80.5612 14.9257 81.3093 15.8868 81.3093 17.4773V26.5144C81.3093 26.7522 81.4381 26.886 81.7057 26.886H84.2325C84.2833 26.8947 84.3353 26.891 84.3844 26.8754C84.4334 26.8598 84.478 26.8327 84.5144 26.7963C84.5508 26.7599 84.5779 26.7153 84.5935 26.6663C84.6091 26.6172 84.6128 26.5651 84.6041 26.5144V16.9471C84.6041 13.9694 83.088 11.9479 80.2986 11.9479C79.4202 11.9572 78.5577 12.1832 77.7876 12.6058C77.0175 13.0285 76.3636 13.6347 75.8841 14.3707V12.5623C75.8866 12.5139 75.8785 12.4656 75.8603 12.4207C75.8422 12.3758 75.8145 12.3354 75.7791 12.3023C75.7436 12.2693 75.7014 12.2444 75.6554 12.2294C75.6093 12.2144 75.5605 12.2096 75.5125 12.2155H73.0352C72.9867 12.2089 72.9374 12.213 72.8907 12.2276C72.844 12.2423 72.8012 12.2671 72.7652 12.3002C72.7292 12.3333 72.701 12.374 72.6826 12.4193C72.6642 12.4646 72.656 12.5135 72.6586 12.5623V26.5144C72.6586 26.7522 72.7924 26.886 73.0599 26.886H75.5868C75.6369 26.8915 75.6877 26.8857 75.7352 26.8689C75.7828 26.8522 75.826 26.825 75.8617 26.7893C75.8974 26.7537 75.9246 26.7104 75.9413 26.6629C75.958 26.6153 75.9639 26.5646 75.9584 26.5144Z" fill="#9C24C7"/>
<path d="M91.8232 8.97499V12.3243H94.7464C94.9594 12.3243 95.0932 12.4581 95.0932 12.7206V14.6381C95.0932 14.9007 94.9594 15.0097 94.7464 15.0097H91.8232V22.3969C91.8232 23.4572 92.4078 23.9874 93.6019 23.9874H94.7216C94.7726 23.9796 94.8247 23.9841 94.8737 24.0004C94.9226 24.0166 94.967 24.0443 95.0033 24.081C95.0395 24.1177 95.0666 24.1625 95.0822 24.2117C95.0978 24.2608 95.1016 24.313 95.0932 24.3639V26.5142C95.1018 26.5649 95.0982 26.617 95.0826 26.666C95.067 26.7151 95.0398 26.7597 95.0034 26.7961C94.967 26.8324 94.9225 26.8596 94.8734 26.8752C94.8244 26.8908 94.7723 26.8944 94.7216 26.8858H93.0717C90.099 26.8858 88.6126 25.2904 88.6126 22.8478V15.0097H86.7794C86.7289 15.0172 86.6773 15.0128 86.6288 14.9968C86.5802 14.9807 86.5361 14.9536 86.5 14.9175C86.4639 14.8813 86.4367 14.8372 86.4207 14.7887C86.4047 14.7402 86.4003 14.6886 86.4078 14.6381V12.7206C86.4078 12.4581 86.5416 12.3243 86.7794 12.3243H88.6374V8.97499C88.6337 8.92524 88.6407 8.87528 88.6581 8.82852C88.6755 8.78176 88.7027 8.73929 88.738 8.70402C88.7733 8.66875 88.8157 8.6415 88.8625 8.62413C88.9093 8.60677 88.9592 8.59969 89.009 8.60339H91.4565C91.5063 8.59869 91.5564 8.60512 91.6034 8.62221C91.6504 8.6393 91.6929 8.66661 91.728 8.70218C91.7631 8.73775 91.7899 8.78069 91.8063 8.82787C91.8228 8.87505 91.8285 8.92531 91.8232 8.97499Z" fill="#9C24C7"/>
<path fill-rule="evenodd" clip-rule="evenodd" d="M108.406 26.5144V16.7638C108.406 13.5482 106.335 11.9231 102.907 11.9231C99.5871 11.9231 97.6944 13.3798 97.2733 15.431C97.194 15.644 97.2733 15.7778 97.5111 15.8571L99.8298 16.4417C100.112 16.521 100.221 16.4714 100.325 16.1791C100.702 15.1387 101.257 14.5837 102.773 14.5837C104.289 14.5837 105.191 15.2477 105.191 16.8926V18.2254C104.19 18.1669 103.187 18.1752 102.188 18.2501C98.3583 18.5127 96.6094 20.0586 96.6094 22.7093C96.6094 25.36 98.3583 27.1684 101.123 27.1684C101.971 27.1708 102.805 26.9512 103.542 26.5314C104.279 26.1115 104.894 25.5061 105.324 24.7753V26.5144C105.319 26.5645 105.325 26.6152 105.342 26.6628C105.358 26.7104 105.385 26.7536 105.421 26.7893C105.457 26.825 105.5 26.8522 105.548 26.8689C105.595 26.8856 105.646 26.8915 105.696 26.886H108.035C108.085 26.8915 108.135 26.8856 108.183 26.8689C108.231 26.8522 108.274 26.825 108.31 26.7893C108.345 26.7536 108.372 26.7104 108.389 26.6628C108.406 26.6152 108.412 26.5645 108.406 26.5144ZM105.191 20.3509V22.1543C104.606 23.6457 103.462 24.5226 101.975 24.5375C100.568 24.5375 99.7407 23.7497 99.7407 22.5557C99.7407 21.1733 100.727 20.5887 102.451 20.4004C103.362 20.3292 104.277 20.3127 105.191 20.3509Z" fill="#9C24C7"/>
<path fill-rule="evenodd" clip-rule="evenodd" d="M123.716 27.8965C123.716 30.3738 121.853 32.4646 116.834 32.4646C112.285 32.4646 110.561 30.8742 110.561 28.5356C110.561 27.2871 111.304 26.1178 112.821 25.4787C112.513 25.2532 112.26 24.9618 112.08 24.6256C111.9 24.2895 111.797 23.9174 111.78 23.5365C111.782 23.0731 111.926 22.6214 112.191 22.2416C112.457 21.8619 112.832 21.5721 113.266 21.4109C112.544 21.0005 111.949 20.3992 111.546 19.6729C111.144 18.9467 110.948 18.1235 110.982 17.2937C110.982 14.3705 112.786 12.2152 116.695 12.2152H123.285C123.327 12.2177 123.368 12.2287 123.406 12.2477C123.444 12.2667 123.478 12.2932 123.505 12.3257C123.533 12.3582 123.553 12.3959 123.566 12.4365C123.578 12.4772 123.582 12.5199 123.577 12.5621V14.425C123.58 14.4745 123.572 14.5241 123.555 14.5705C123.537 14.6169 123.51 14.659 123.474 14.6941C123.439 14.7292 123.397 14.7565 123.351 14.7742C123.304 14.7918 123.255 14.7995 123.205 14.7966H120.892C121.319 15.1617 121.658 15.6188 121.884 16.1336C122.109 16.6484 122.216 17.2076 122.195 17.7693C122.195 20.2962 120.416 22.2284 116.745 22.2284H115.813C114.936 22.2284 114.565 22.605 114.565 23.1054C114.565 23.6058 114.966 23.9328 115.813 23.9328H118.845C122.279 23.9625 123.716 25.6372 123.716 27.8965ZM120.579 28.1888C120.579 27.3366 120.084 26.5389 118.375 26.5389H115.689C114.119 26.5389 113.564 27.3663 113.564 28.2136C113.564 29.4374 114.555 30.235 117.032 30.235C119.509 30.235 120.579 29.3581 120.579 28.1888ZM113.955 17.2937C113.955 18.8891 114.887 19.9493 116.695 19.9493C118.394 19.9493 119.351 18.9931 119.351 17.3185C119.351 15.7231 118.474 14.6876 116.665 14.6876C114.857 14.6876 113.955 15.6438 113.955 17.2937Z" fill="#9C24C7"/>
<path fill-rule="evenodd" clip-rule="evenodd" d="M128.284 21.4112V20.5639H136.568C137.074 20.5639 137.237 20.3509 137.237 19.9248V17.6903C137.237 14.4004 135.221 11.9231 131.292 11.9231C127.199 11.9231 125.123 14.4252 125.123 17.7448V21.3567C125.123 24.7605 127.278 27.1783 131.341 27.1783C134.131 27.1783 136.177 26.009 137.054 24.0718C137.217 23.7497 137.188 23.5367 136.816 23.3533L135.141 22.5012C134.794 22.3426 134.666 22.3971 134.453 22.739C133.947 23.7249 133.353 24.4929 131.371 24.4929C129.275 24.4681 128.284 23.2988 128.284 21.4112ZM128.284 18.3839V17.611C128.284 15.8075 129.231 14.6085 131.212 14.6085C133.194 14.6085 134.185 15.8075 134.185 17.611V18.3839H128.284Z" fill="#9C24C7"/>
<path d="M5.05858 15.5574L10.4591 20.9628C10.5127 21.0184 10.5769 21.0626 10.648 21.0929C10.7191 21.1231 10.7955 21.1386 10.8728 21.1386C10.95 21.1386 11.0265 21.1231 11.0975 21.0929C11.1686 21.0626 11.2329 21.0184 11.2865 20.9628L16.6771 15.5574C16.7848 15.4496 16.8453 15.3035 16.8453 15.1511C16.8453 14.9988 16.7848 14.8526 16.6771 14.7448L11.2716 9.34435C11.1638 9.23664 11.0177 9.17614 10.8654 9.17614C10.713 9.17614 10.5669 9.23664 10.4591 9.34435L5.05858 14.7448C4.95087 14.8526 4.89038 14.9988 4.89038 15.1511C4.89038 15.3035 4.95087 15.4496 5.05858 15.5574Z" fill="white"/>
<path d="M18.4062 28.0925L23.8067 22.692C23.9144 22.5842 23.9749 22.4381 23.9749 22.2857C23.9749 22.1333 23.9144 21.9872 23.8067 21.8794L18.4062 16.474C18.2984 16.3663 18.1523 16.3058 17.9999 16.3058C17.8476 16.3058 17.7014 16.3663 17.5937 16.474L12.1882 21.8794C12.0805 21.9872 12.02 22.1333 12.02 22.2857C12.02 22.4381 12.0805 22.5842 12.1882 22.692L17.5937 28.0925C17.7014 28.2002 17.8476 28.2607 17.9999 28.2607C18.1523 28.2607 18.2984 28.2002 18.4062 28.0925Z" fill="white"/>
<path d="M25.5359 20.9628L30.9363 15.5574C30.9903 15.5044 31.0331 15.4411 31.0624 15.3714C31.0916 15.3016 31.1067 15.2268 31.1067 15.1511C31.1067 15.0755 31.0916 15.0006 31.0624 14.9308C31.0331 14.8611 30.9903 14.7979 30.9363 14.7448L25.5359 9.34435C25.4281 9.23664 25.282 9.17614 25.1296 9.17614C24.9772 9.17614 24.8311 9.23664 24.7233 9.34435L19.3179 14.7448C19.2102 14.8526 19.1497 14.9988 19.1497 15.1511C19.1497 15.3035 19.2102 15.4496 19.3179 15.5574L24.7233 20.9628C24.8311 21.0705 24.9772 21.1311 25.1296 21.1311C25.282 21.1311 25.4281 21.0705 25.5359 20.9628Z" fill="white"/>
</svg>
