<svg width="48" height="48" viewBox="0 0 48 48" fill="none" xmlns="http://www.w3.org/2000/svg">
<path d="M40.75 37.35V20.2H43.75V37.35H40.75ZM42.25 44.35C41.7833 44.35 41.375 44.175 41.025 43.825C40.675 43.475 40.5 43.0667 40.5 42.6C40.5 42.1333 40.675 41.725 41.025 41.375C41.375 41.025 41.7833 40.85 42.25 40.85C42.7166 40.85 43.1249 41.025 43.4749 41.375C43.8249 41.725 44 42.1333 44 42.6C44 43.0667 43.8249 43.475 43.4749 43.825C43.1249 44.175 42.7166 44.35 42.25 44.35ZM24 43.85C23.6333 43.85 23.2666 43.7667 22.9 43.6C22.5333 43.4333 22.2 43.2167 21.9 42.95L5.04995 26.1C4.78328 25.8 4.57495 25.4583 4.42495 25.075C4.27495 24.6917 4.19995 24.3167 4.19995 23.95C4.19995 23.55 4.27495 23.1667 4.42495 22.8C4.57495 22.4333 4.78328 22.1167 5.04995 21.85L21.95 4.95001C22.25 4.65001 22.5833 4.43334 22.95 4.30001C23.3166 4.16667 23.6833 4.10001 24.0499 4.10001C24.4166 4.10001 24.7833 4.16667 25.15 4.30001C25.5166 4.43334 25.8333 4.65001 26.1 4.95001L37.75 16.6V22.1L24 8.35001L8.34995 24L24 39.65L37.75 25.9V31.35L26.15 42.95C25.85 43.25 25.5083 43.475 25.125 43.625C24.7416 43.775 24.3666 43.85 24 43.85ZM24 35.15L12.85 24L24 12.85L35.15 24L24 35.15Z" fill="#9C24C7"/>
</svg>
