<svg width="48" height="48" viewBox="0 0 48 48" fill="none" xmlns="http://www.w3.org/2000/svg">
<path d="M11.3 40C10.3667 40 9.58333 39.6833 8.95 39.05C8.31667 38.4167 8 37.6333 8 36.7C8 35.7667 8.31667 34.9833 8.95 34.35C9.58333 33.7167 10.3667 33.4 11.3 33.4C12.2333 33.4 13.0167 33.7167 13.65 34.35C14.2833 34.9833 14.6 35.7667 14.6 36.7C14.6 37.6333 14.2833 38.4167 13.65 39.05C13.0167 39.6833 12.2333 40 11.3 40ZM24 40C23.0667 40 22.2833 39.6833 21.65 39.05C21.0167 38.4167 20.7 37.6333 20.7 36.7C20.7 35.7667 21.0167 34.9833 21.65 34.35C22.2833 33.7167 23.0667 33.4 24 33.4C24.9333 33.4 25.7167 33.7167 26.35 34.35C26.9833 34.9833 27.3 35.7667 27.3 36.7C27.3 37.6333 26.9833 38.4167 26.35 39.05C25.7167 39.6833 24.9333 40 24 40ZM36.7 40C35.7667 40 34.9833 39.6833 34.35 39.05C33.7167 38.4167 33.4 37.6333 33.4 36.7C33.4 35.7667 33.7167 34.9833 34.35 34.35C34.9833 33.7167 35.7667 33.4 36.7 33.4C37.6333 33.4 38.4167 33.7167 39.05 34.35C39.6833 34.9833 40 35.7667 40 36.7C40 37.6333 39.6833 38.4167 39.05 39.05C38.4167 39.6833 37.6333 40 36.7 40ZM11.3 27.3C10.3667 27.3 9.58333 26.9833 8.95 26.35C8.31667 25.7167 8 24.9333 8 24C8 23.0667 8.31667 22.2833 8.95 21.65C9.58333 21.0167 10.3667 20.7 11.3 20.7C12.2333 20.7 13.0167 21.0167 13.65 21.65C14.2833 22.2833 14.6 23.0667 14.6 24C14.6 24.9333 14.2833 25.7167 13.65 26.35C13.0167 26.9833 12.2333 27.3 11.3 27.3ZM24 27.3C23.0667 27.3 22.2833 26.9833 21.65 26.35C21.0167 25.7167 20.7 24.9333 20.7 24C20.7 23.0667 21.0167 22.2833 21.65 21.65C22.2833 21.0167 23.0667 20.7 24 20.7C24.9333 20.7 25.7167 21.0167 26.35 21.65C26.9833 22.2833 27.3 23.0667 27.3 24C27.3 24.9333 26.9833 25.7167 26.35 26.35C25.7167 26.9833 24.9333 27.3 24 27.3ZM36.7 27.3C35.7667 27.3 34.9833 26.9833 34.35 26.35C33.7167 25.7167 33.4 24.9333 33.4 24C33.4 23.0667 33.7167 22.2833 34.35 21.65C34.9833 21.0167 35.7667 20.7 36.7 20.7C37.6333 20.7 38.4167 21.0167 39.05 21.65C39.6833 22.2833 40 23.0667 40 24C40 24.9333 39.6833 25.7167 39.05 26.35C38.4167 26.9833 37.6333 27.3 36.7 27.3ZM11.3 14.6C10.3667 14.6 9.58333 14.2833 8.95 13.65C8.31667 13.0167 8 12.2333 8 11.3C8 10.3667 8.31667 9.58333 8.95 8.95C9.58333 8.31667 10.3667 8 11.3 8C12.2333 8 13.0167 8.31667 13.65 8.95C14.2833 9.58333 14.6 10.3667 14.6 11.3C14.6 12.2333 14.2833 13.0167 13.65 13.65C13.0167 14.2833 12.2333 14.6 11.3 14.6ZM24 14.6C23.0667 14.6 22.2833 14.2833 21.65 13.65C21.0167 13.0167 20.7 12.2333 20.7 11.3C20.7 10.3667 21.0167 9.58333 21.65 8.95C22.2833 8.31667 23.0667 8 24 8C24.9333 8 25.7167 8.31667 26.35 8.95C26.9833 9.58333 27.3 10.3667 27.3 11.3C27.3 12.2333 26.9833 13.0167 26.35 13.65C25.7167 14.2833 24.9333 14.6 24 14.6ZM36.7 14.6C35.7667 14.6 34.9833 14.2833 34.35 13.65C33.7167 13.0167 33.4 12.2333 33.4 11.3C33.4 10.3667 33.7167 9.58333 34.35 8.95C34.9833 8.31667 35.7667 8 36.7 8C37.6333 8 38.4167 8.31667 39.05 8.95C39.6833 9.58333 40 10.3667 40 11.3C40 12.2333 39.6833 13.0167 39.05 13.65C38.4167 14.2833 37.6333 14.6 36.7 14.6Z" fill="#9C24C7"/>
</svg>
