<svg width="48" height="48" viewBox="0 0 48 48" fill="none" xmlns="http://www.w3.org/2000/svg">
<path d="M15.7 36.6H18.2V32.2H22.6V29.7H18.2V25.3H15.7V29.7H11.3V32.2H15.7V36.6ZM26.45 34.85H36.5V32.4H26.45V34.85ZM26.45 29.5H36.5V27H26.45V29.5ZM28.3 21.35L31.35 18.3L34.4 21.35L36.2 19.55L33.15 16.5L36.2 13.45L34.4 11.65L31.35 14.7L28.3 11.65L26.5 13.45L29.55 16.5L26.5 19.55L28.3 21.35ZM12.05 17.75H21.85V15.25H12.05V17.75ZM9 42C8.2 42 7.5 41.7 6.9 41.1C6.3 40.5 6 39.8 6 39V9C6 8.2 6.3 7.5 6.9 6.9C7.5 6.3 8.2 6 9 6H39C39.8 6 40.5 6.3 41.1 6.9C41.7 7.5 42 8.2 42 9V39C42 39.8 41.7 40.5 41.1 41.1C40.5 41.7 39.8 42 39 42H9ZM9 39H39V9H9V39Z" fill="#9C24C7"/>
</svg>
